<?xml version="1.0" encoding="UTF-8"?>
<svg xmlns="http://www.w3.org/2000/svg" xmlns:xlink="http://www.w3.org/1999/xlink" width="854" height="480" viewBox="0 0 854 480">
<defs>
<g>
<g id="glyph-0-0">
<path d="M 3.601562 0 L 2.628906 0 C 2.441406 -0.289062 2.234375 -0.578125 2.003906 -0.863281 C 1.777344 -1.148438 1.539062 -1.425781 1.285156 -1.695312 L 1.222656 -1.695312 L 1.222656 -0.488281 C 1.222656 -0.433594 1.234375 -0.386719 1.253906 -0.34375 C 1.273438 -0.300781 1.3125 -0.269531 1.363281 -0.242188 C 1.390625 -0.230469 1.4375 -0.214844 1.511719 -0.199219 C 1.582031 -0.183594 1.640625 -0.175781 1.6875 -0.171875 L 1.6875 0 L 0.25 0 L 0.25 -0.171875 C 0.285156 -0.175781 0.339844 -0.179688 0.414062 -0.1875 C 0.484375 -0.195312 0.535156 -0.203125 0.5625 -0.21875 C 0.613281 -0.238281 0.648438 -0.269531 0.671875 -0.3125 C 0.691406 -0.351562 0.703125 -0.402344 0.703125 -0.460938 L 0.703125 -2.960938 C 0.703125 -3.015625 0.695312 -3.066406 0.675781 -3.105469 C 0.65625 -3.144531 0.621094 -3.179688 0.5625 -3.207031 C 0.519531 -3.226562 0.46875 -3.246094 0.40625 -3.261719 C 0.347656 -3.277344 0.292969 -3.289062 0.25 -3.289062 L 0.25 -3.464844 L 1.6875 -3.464844 L 1.6875 -3.289062 C 1.640625 -3.289062 1.585938 -3.28125 1.515625 -3.269531 C 1.449219 -3.257812 1.398438 -3.242188 1.363281 -3.234375 C 1.308594 -3.210938 1.273438 -3.179688 1.253906 -3.132812 C 1.234375 -3.089844 1.222656 -3.039062 1.222656 -2.984375 L 1.222656 -1.789062 L 1.273438 -1.789062 C 1.417969 -1.914062 1.5625 -2.042969 1.703125 -2.175781 C 1.84375 -2.3125 1.972656 -2.445312 2.089844 -2.578125 C 2.21875 -2.726562 2.3125 -2.84375 2.371094 -2.933594 C 2.429688 -3.023438 2.460938 -3.101562 2.460938 -3.167969 C 2.460938 -3.195312 2.445312 -3.214844 2.414062 -3.230469 C 2.386719 -3.246094 2.351562 -3.257812 2.3125 -3.265625 C 2.265625 -3.277344 2.226562 -3.28125 2.191406 -3.285156 C 2.152344 -3.289062 2.125 -3.289062 2.101562 -3.289062 L 2.101562 -3.464844 L 3.402344 -3.464844 L 3.402344 -3.289062 C 3.394531 -3.289062 3.386719 -3.289062 3.371094 -3.289062 C 3.351562 -3.285156 3.335938 -3.285156 3.3125 -3.285156 C 3.289062 -3.28125 3.265625 -3.277344 3.246094 -3.273438 C 3.222656 -3.269531 3.191406 -3.261719 3.15625 -3.257812 C 3.101562 -3.242188 3.039062 -3.222656 2.980469 -3.195312 C 2.917969 -3.167969 2.867188 -3.128906 2.828125 -3.089844 C 2.664062 -2.898438 2.488281 -2.699219 2.304688 -2.496094 C 2.125 -2.292969 1.941406 -2.109375 1.765625 -1.941406 C 2.011719 -1.660156 2.21875 -1.417969 2.378906 -1.21875 C 2.542969 -1.015625 2.714844 -0.800781 2.894531 -0.570312 C 2.964844 -0.484375 3.035156 -0.414062 3.105469 -0.359375 C 3.175781 -0.308594 3.234375 -0.269531 3.285156 -0.242188 C 3.328125 -0.21875 3.378906 -0.203125 3.441406 -0.191406 C 3.507812 -0.179688 3.558594 -0.175781 3.601562 -0.171875 Z "/>
</g>
<g id="glyph-0-1">
<path d="M 1.34375 0 L 0.179688 0 L 0.179688 -0.160156 C 0.21875 -0.164062 0.257812 -0.167969 0.296875 -0.171875 C 0.335938 -0.175781 0.371094 -0.179688 0.398438 -0.191406 C 0.445312 -0.203125 0.480469 -0.230469 0.5 -0.265625 C 0.523438 -0.304688 0.535156 -0.351562 0.535156 -0.410156 L 0.535156 -1.894531 C 0.535156 -1.945312 0.523438 -1.996094 0.5 -2.039062 C 0.476562 -2.082031 0.441406 -2.117188 0.398438 -2.144531 C 0.371094 -2.164062 0.324219 -2.183594 0.265625 -2.195312 C 0.207031 -2.210938 0.152344 -2.21875 0.105469 -2.222656 L 0.105469 -2.382812 L 0.953125 -2.4375 L 0.988281 -2.402344 L 0.988281 -0.4375 C 0.988281 -0.382812 1 -0.335938 1.023438 -0.296875 C 1.042969 -0.261719 1.078125 -0.234375 1.125 -0.214844 C 1.160156 -0.199219 1.195312 -0.1875 1.230469 -0.179688 C 1.261719 -0.171875 1.300781 -0.164062 1.34375 -0.160156 L 1.34375 0 M 1.039062 -3.386719 C 1.039062 -3.292969 1.007812 -3.210938 0.945312 -3.144531 C 0.886719 -3.074219 0.808594 -3.039062 0.71875 -3.039062 C 0.636719 -3.039062 0.566406 -3.074219 0.503906 -3.136719 C 0.441406 -3.203125 0.414062 -3.28125 0.414062 -3.363281 C 0.414062 -3.453125 0.441406 -3.53125 0.503906 -3.597656 C 0.566406 -3.664062 0.636719 -3.699219 0.71875 -3.699219 C 0.8125 -3.699219 0.890625 -3.667969 0.949219 -3.605469 C 1.007812 -3.542969 1.039062 -3.46875 1.039062 -3.386719 Z "/>
</g>
<g id="glyph-0-2">
<path d="M 1.664062 -0.105469 C 1.558594 -0.0625 1.457031 -0.0234375 1.363281 0.0078125 C 1.269531 0.0351562 1.152344 0.0507812 1.015625 0.0507812 C 0.8125 0.0507812 0.671875 0 0.589844 -0.101562 C 0.507812 -0.203125 0.464844 -0.347656 0.464844 -0.53125 L 0.464844 -2.164062 L 0.03125 -2.164062 L 0.03125 -2.398438 L 0.476562 -2.398438 L 0.476562 -3.148438 L 0.921875 -3.148438 L 0.921875 -2.398438 L 1.609375 -2.398438 L 1.609375 -2.164062 L 0.925781 -2.164062 L 0.925781 -0.816406 C 0.925781 -0.71875 0.929688 -0.632812 0.9375 -0.566406 C 0.945312 -0.496094 0.960938 -0.4375 0.988281 -0.386719 C 1.015625 -0.339844 1.054688 -0.304688 1.105469 -0.28125 C 1.15625 -0.257812 1.226562 -0.242188 1.316406 -0.242188 C 1.355469 -0.242188 1.417969 -0.246094 1.496094 -0.253906 C 1.574219 -0.261719 1.628906 -0.273438 1.664062 -0.28125 Z "/>
</g>
<g id="glyph-0-3">
<path d="M 2.457031 -0.0429688 C 2.378906 -0.015625 2.3125 0.0078125 2.253906 0.0234375 C 2.195312 0.0390625 2.132812 0.046875 2.058594 0.046875 C 1.929688 0.046875 1.828125 0.0195312 1.753906 -0.0390625 C 1.679688 -0.101562 1.628906 -0.1875 1.609375 -0.300781 L 1.59375 -0.300781 C 1.488281 -0.183594 1.375 -0.09375 1.253906 -0.03125 C 1.132812 0.03125 0.984375 0.0625 0.816406 0.0625 C 0.632812 0.0625 0.484375 0.00390625 0.371094 -0.105469 C 0.253906 -0.214844 0.195312 -0.359375 0.195312 -0.539062 C 0.195312 -0.632812 0.207031 -0.714844 0.234375 -0.789062 C 0.261719 -0.863281 0.300781 -0.929688 0.351562 -0.984375 C 0.390625 -1.035156 0.445312 -1.078125 0.511719 -1.117188 C 0.578125 -1.15625 0.640625 -1.1875 0.699219 -1.207031 C 0.773438 -1.234375 0.921875 -1.289062 1.144531 -1.363281 C 1.371094 -1.4375 1.519531 -1.496094 1.597656 -1.539062 L 1.597656 -1.78125 C 1.597656 -1.800781 1.59375 -1.839844 1.585938 -1.902344 C 1.578125 -1.960938 1.558594 -2.019531 1.527344 -2.074219 C 1.496094 -2.132812 1.449219 -2.183594 1.390625 -2.230469 C 1.332031 -2.273438 1.246094 -2.296875 1.136719 -2.296875 C 1.0625 -2.296875 0.992188 -2.285156 0.929688 -2.257812 C 0.863281 -2.234375 0.820312 -2.207031 0.792969 -2.179688 C 0.792969 -2.148438 0.800781 -2.097656 0.816406 -2.035156 C 0.832031 -1.972656 0.839844 -1.914062 0.839844 -1.859375 C 0.839844 -1.804688 0.8125 -1.75 0.761719 -1.703125 C 0.710938 -1.65625 0.640625 -1.632812 0.550781 -1.632812 C 0.46875 -1.632812 0.40625 -1.664062 0.371094 -1.71875 C 0.332031 -1.777344 0.3125 -1.84375 0.3125 -1.914062 C 0.3125 -1.988281 0.339844 -2.0625 0.390625 -2.128906 C 0.445312 -2.195312 0.511719 -2.257812 0.597656 -2.3125 C 0.671875 -2.359375 0.761719 -2.394531 0.863281 -2.429688 C 0.96875 -2.460938 1.070312 -2.476562 1.167969 -2.476562 C 1.304688 -2.476562 1.425781 -2.464844 1.527344 -2.449219 C 1.628906 -2.429688 1.722656 -2.386719 1.804688 -2.328125 C 1.886719 -2.265625 1.949219 -2.183594 1.992188 -2.082031 C 2.035156 -1.976562 2.058594 -1.84375 2.058594 -1.683594 C 2.058594 -1.449219 2.054688 -1.242188 2.050781 -1.0625 C 2.046875 -0.882812 2.042969 -0.6875 2.042969 -0.472656 C 2.042969 -0.410156 2.054688 -0.359375 2.078125 -0.320312 C 2.097656 -0.285156 2.132812 -0.253906 2.179688 -0.226562 C 2.203125 -0.210938 2.242188 -0.203125 2.292969 -0.203125 C 2.347656 -0.199219 2.402344 -0.199219 2.457031 -0.199219 L 2.457031 -0.0429688 M 1.605469 -1.332031 C 1.464844 -1.292969 1.34375 -1.253906 1.242188 -1.214844 C 1.136719 -1.175781 1.039062 -1.125 0.949219 -1.066406 C 0.867188 -1.011719 0.804688 -0.945312 0.757812 -0.871094 C 0.710938 -0.792969 0.6875 -0.703125 0.6875 -0.597656 C 0.6875 -0.464844 0.722656 -0.363281 0.792969 -0.300781 C 0.863281 -0.238281 0.953125 -0.203125 1.0625 -0.203125 C 1.175781 -0.203125 1.28125 -0.234375 1.367188 -0.289062 C 1.453125 -0.347656 1.527344 -0.414062 1.589844 -0.488281 Z "/>
</g>
</g>
</defs>
<g fill="rgb(100%, 100%, 100%)" fill-opacity="1">
<use xlink:href="#glyph-0-0" x="30" y="24.584961"/>
<use xlink:href="#glyph-0-1" x="33" y="24.584961"/>
<use xlink:href="#glyph-0-2" x="34" y="24.584961"/>
<use xlink:href="#glyph-0-0" x="36" y="24.584961"/>
<use xlink:href="#glyph-0-3" x="39" y="24.584961"/>
<use xlink:href="#glyph-0-2" x="42" y="24.584961"/>
</g>
</svg>
