<?xml version="1.0" encoding="UTF-8"?>
<svg xmlns="http://www.w3.org/2000/svg" xmlns:xlink="http://www.w3.org/1999/xlink" width="854" height="480" viewBox="0 0 854 480">
<defs>
<g>
<g id="glyph-0-0">
<path d="M 2.765625 -1.332031 C 2.765625 -1.101562 2.722656 -0.902344 2.636719 -0.734375 C 2.550781 -0.566406 2.441406 -0.429688 2.300781 -0.320312 C 2.164062 -0.214844 2.007812 -0.132812 1.832031 -0.078125 C 1.660156 -0.0273438 1.480469 0 1.296875 0 L 0.179688 0 L 0.179688 -0.136719 C 0.214844 -0.136719 0.261719 -0.136719 0.320312 -0.144531 C 0.378906 -0.152344 0.417969 -0.160156 0.4375 -0.167969 C 0.476562 -0.183594 0.503906 -0.210938 0.519531 -0.242188 C 0.539062 -0.273438 0.546875 -0.3125 0.546875 -0.359375 L 0.546875 -2.304688 C 0.546875 -2.347656 0.539062 -2.386719 0.523438 -2.417969 C 0.511719 -2.453125 0.480469 -2.480469 0.4375 -2.5 C 0.398438 -2.519531 0.355469 -2.535156 0.3125 -2.542969 C 0.265625 -2.550781 0.226562 -2.558594 0.195312 -2.558594 L 0.195312 -2.695312 L 1.371094 -2.695312 C 1.53125 -2.695312 1.691406 -2.667969 1.851562 -2.621094 C 2.007812 -2.570312 2.144531 -2.503906 2.261719 -2.417969 C 2.417969 -2.304688 2.542969 -2.15625 2.632812 -1.976562 C 2.722656 -1.792969 2.765625 -1.578125 2.765625 -1.332031 M 2.300781 -1.332031 C 2.300781 -1.511719 2.277344 -1.675781 2.230469 -1.824219 C 2.179688 -1.96875 2.109375 -2.097656 2.019531 -2.207031 C 1.929688 -2.308594 1.824219 -2.390625 1.695312 -2.449219 C 1.570312 -2.507812 1.429688 -2.539062 1.273438 -2.539062 C 1.21875 -2.539062 1.160156 -2.539062 1.097656 -2.535156 C 1.03125 -2.535156 0.984375 -2.53125 0.953125 -2.53125 L 0.953125 -0.460938 C 0.953125 -0.347656 0.984375 -0.265625 1.050781 -0.222656 C 1.121094 -0.179688 1.222656 -0.15625 1.363281 -0.15625 C 1.523438 -0.15625 1.664062 -0.183594 1.785156 -0.242188 C 1.902344 -0.296875 2 -0.378906 2.074219 -0.476562 C 2.152344 -0.585938 2.210938 -0.707031 2.246094 -0.847656 C 2.285156 -0.988281 2.300781 -1.148438 2.300781 -1.332031 Z "/>
</g>
<g id="glyph-0-1">
<path d="M 2.699219 0 L 1.578125 0 L 1.578125 -0.136719 C 1.675781 -0.140625 1.757812 -0.152344 1.824219 -0.171875 C 1.890625 -0.191406 1.921875 -0.214844 1.921875 -0.242188 C 1.921875 -0.253906 1.921875 -0.269531 1.917969 -0.285156 C 1.914062 -0.300781 1.910156 -0.316406 1.90625 -0.328125 L 1.683594 -0.933594 L 0.738281 -0.933594 C 0.703125 -0.84375 0.671875 -0.765625 0.652344 -0.699219 C 0.628906 -0.636719 0.609375 -0.574219 0.589844 -0.519531 C 0.574219 -0.464844 0.5625 -0.417969 0.558594 -0.386719 C 0.550781 -0.351562 0.546875 -0.324219 0.546875 -0.300781 C 0.546875 -0.25 0.585938 -0.210938 0.667969 -0.183594 C 0.746094 -0.15625 0.835938 -0.140625 0.9375 -0.136719 L 0.9375 0 L -0.078125 0 L -0.078125 -0.136719 C -0.046875 -0.136719 -0.00390625 -0.144531 0.046875 -0.15625 C 0.09375 -0.167969 0.136719 -0.183594 0.167969 -0.207031 C 0.21875 -0.238281 0.257812 -0.273438 0.285156 -0.3125 C 0.3125 -0.351562 0.339844 -0.402344 0.367188 -0.46875 C 0.503906 -0.804688 0.652344 -1.183594 0.816406 -1.605469 C 0.976562 -2.027344 1.125 -2.402344 1.25 -2.734375 L 1.402344 -2.734375 L 2.300781 -0.410156 C 2.320312 -0.359375 2.34375 -0.320312 2.367188 -0.289062 C 2.390625 -0.257812 2.425781 -0.230469 2.46875 -0.199219 C 2.496094 -0.183594 2.535156 -0.167969 2.582031 -0.15625 C 2.628906 -0.144531 2.667969 -0.136719 2.699219 -0.136719 L 2.699219 0 M 1.613281 -1.101562 L 1.207031 -2.148438 L 0.804688 -1.101562 Z "/>
</g>
<g id="glyph-0-2">
<path d="M 2.378906 -1.964844 L 2.246094 -1.964844 C 2.234375 -2.007812 2.214844 -2.0625 2.183594 -2.125 C 2.15625 -2.1875 2.121094 -2.246094 2.085938 -2.304688 C 2.046875 -2.363281 2.003906 -2.414062 1.960938 -2.457031 C 1.914062 -2.5 1.871094 -2.523438 1.828125 -2.53125 C 1.789062 -2.535156 1.742188 -2.539062 1.679688 -2.542969 C 1.621094 -2.546875 1.566406 -2.546875 1.515625 -2.546875 L 1.40625 -2.546875 L 1.40625 -0.390625 C 1.40625 -0.347656 1.414062 -0.3125 1.433594 -0.277344 C 1.449219 -0.242188 1.480469 -0.214844 1.523438 -0.195312 C 1.546875 -0.1875 1.59375 -0.175781 1.667969 -0.160156 C 1.742188 -0.144531 1.796875 -0.136719 1.839844 -0.136719 L 1.839844 0 L 0.566406 0 L 0.566406 -0.136719 C 0.601562 -0.136719 0.65625 -0.140625 0.726562 -0.148438 C 0.800781 -0.15625 0.851562 -0.167969 0.878906 -0.179688 C 0.921875 -0.195312 0.953125 -0.21875 0.972656 -0.25 C 0.992188 -0.28125 1 -0.320312 1 -0.375 L 1 -2.546875 L 0.890625 -2.546875 C 0.851562 -2.546875 0.800781 -2.546875 0.746094 -2.542969 C 0.6875 -2.542969 0.628906 -2.539062 0.578125 -2.53125 C 0.535156 -2.527344 0.492188 -2.5 0.445312 -2.457031 C 0.402344 -2.410156 0.359375 -2.359375 0.324219 -2.304688 C 0.285156 -2.246094 0.25 -2.1875 0.222656 -2.121094 C 0.191406 -2.058594 0.171875 -2.003906 0.160156 -1.964844 L 0.0273438 -1.964844 L 0.0273438 -2.695312 L 2.378906 -2.695312 Z "/>
</g>
</g>
</defs>
<g fill="rgb(0%, 0%, 0%)" fill-opacity="1">
<use xlink:href="#glyph-0-0" x="30" y="23.56543"/>
<use xlink:href="#glyph-0-1" x="33" y="23.56543"/>
<use xlink:href="#glyph-0-2" x="36" y="23.56543"/>
<use xlink:href="#glyph-0-1" x="38" y="23.56543"/>
</g>
</svg>
