<?xml version="1.0" encoding="UTF-8"?>
<svg xmlns="http://www.w3.org/2000/svg" xmlns:xlink="http://www.w3.org/1999/xlink" width="854" height="480" viewBox="0 0 854 480">
<defs>
<g>
<g id="glyph-0-0">
<path d="M 2.890625 -2.609375 C 2.890625 -2.429688 2.855469 -2.269531 2.785156 -2.128906 C 2.714844 -1.992188 2.617188 -1.875 2.492188 -1.785156 C 2.367188 -1.695312 2.230469 -1.625 2.082031 -1.585938 C 1.933594 -1.542969 1.777344 -1.519531 1.609375 -1.519531 L 1.222656 -1.519531 L 1.222656 -0.472656 C 1.222656 -0.414062 1.234375 -0.363281 1.25 -0.320312 C 1.269531 -0.277344 1.308594 -0.246094 1.367188 -0.222656 C 1.398438 -0.210938 1.449219 -0.199219 1.523438 -0.191406 C 1.597656 -0.179688 1.664062 -0.175781 1.726562 -0.171875 L 1.726562 0 L 0.238281 0 L 0.238281 -0.171875 C 0.277344 -0.175781 0.335938 -0.183594 0.410156 -0.191406 C 0.484375 -0.199219 0.535156 -0.210938 0.5625 -0.222656 C 0.613281 -0.242188 0.648438 -0.273438 0.671875 -0.316406 C 0.691406 -0.355469 0.703125 -0.40625 0.703125 -0.472656 L 0.703125 -2.972656 C 0.703125 -3.027344 0.695312 -3.078125 0.679688 -3.125 C 0.664062 -3.171875 0.625 -3.203125 0.5625 -3.226562 C 0.503906 -3.25 0.441406 -3.265625 0.378906 -3.273438 C 0.320312 -3.28125 0.265625 -3.289062 0.222656 -3.289062 L 0.222656 -3.464844 L 1.804688 -3.464844 C 2.125 -3.464844 2.386719 -3.386719 2.589844 -3.230469 C 2.789062 -3.074219 2.890625 -2.867188 2.890625 -2.609375 M 2.148438 -2.019531 C 2.203125 -2.097656 2.242188 -2.179688 2.257812 -2.261719 C 2.277344 -2.347656 2.285156 -2.421875 2.285156 -2.488281 C 2.285156 -2.582031 2.273438 -2.675781 2.253906 -2.769531 C 2.230469 -2.867188 2.191406 -2.949219 2.140625 -3.023438 C 2.082031 -3.097656 2.007812 -3.160156 1.914062 -3.199219 C 1.820312 -3.242188 1.707031 -3.265625 1.566406 -3.265625 L 1.222656 -3.265625 L 1.222656 -1.734375 L 1.472656 -1.734375 C 1.648438 -1.734375 1.789062 -1.761719 1.902344 -1.816406 C 2.011719 -1.871094 2.09375 -1.9375 2.148438 -2.019531 Z "/>
</g>
<g id="glyph-0-1">
<path d="M 2.523438 -1.226562 C 2.523438 -1.058594 2.496094 -0.890625 2.445312 -0.730469 C 2.390625 -0.566406 2.3125 -0.425781 2.214844 -0.3125 C 2.101562 -0.183594 1.972656 -0.0859375 1.824219 -0.0234375 C 1.675781 0.0429688 1.507812 0.0742188 1.324219 0.0742188 C 1.171875 0.0742188 1.027344 0.0429688 0.886719 -0.0117188 C 0.75 -0.0703125 0.625 -0.15625 0.519531 -0.265625 C 0.410156 -0.375 0.328125 -0.507812 0.265625 -0.664062 C 0.203125 -0.824219 0.171875 -1 0.171875 -1.195312 C 0.171875 -1.570312 0.28125 -1.878906 0.5 -2.117188 C 0.71875 -2.355469 1.007812 -2.476562 1.359375 -2.476562 C 1.699219 -2.476562 1.976562 -2.363281 2.195312 -2.136719 C 2.414062 -1.90625 2.523438 -1.605469 2.523438 -1.226562 M 2.019531 -1.222656 C 2.019531 -1.34375 2.007812 -1.472656 1.980469 -1.609375 C 1.957031 -1.746094 1.921875 -1.859375 1.871094 -1.957031 C 1.820312 -2.054688 1.75 -2.136719 1.667969 -2.199219 C 1.582031 -2.257812 1.476562 -2.289062 1.355469 -2.289062 C 1.230469 -2.289062 1.125 -2.257812 1.035156 -2.195312 C 0.945312 -2.136719 0.875 -2.050781 0.816406 -1.945312 C 0.765625 -1.84375 0.730469 -1.730469 0.707031 -1.605469 C 0.6875 -1.476562 0.675781 -1.355469 0.675781 -1.234375 C 0.675781 -1.078125 0.6875 -0.933594 0.714844 -0.800781 C 0.738281 -0.667969 0.78125 -0.550781 0.835938 -0.445312 C 0.890625 -0.34375 0.960938 -0.261719 1.042969 -0.203125 C 1.128906 -0.140625 1.230469 -0.113281 1.355469 -0.113281 C 1.558594 -0.113281 1.722656 -0.210938 1.839844 -0.40625 C 1.960938 -0.605469 2.019531 -0.875 2.019531 -1.222656 Z "/>
</g>
<g id="glyph-0-2">
<path d="M 2.019531 -2.097656 C 2.019531 -2.015625 2 -1.941406 1.957031 -1.875 C 1.917969 -1.8125 1.855469 -1.78125 1.769531 -1.78125 C 1.679688 -1.78125 1.609375 -1.804688 1.5625 -1.851562 C 1.511719 -1.898438 1.488281 -1.949219 1.488281 -2.007812 C 1.488281 -2.042969 1.492188 -2.074219 1.496094 -2.105469 C 1.503906 -2.132812 1.507812 -2.164062 1.515625 -2.191406 C 1.4375 -2.191406 1.347656 -2.160156 1.246094 -2.101562 C 1.140625 -2.039062 1.054688 -1.949219 0.984375 -1.835938 L 0.984375 -0.433594 C 0.984375 -0.378906 0.996094 -0.332031 1.015625 -0.296875 C 1.039062 -0.257812 1.074219 -0.234375 1.121094 -0.214844 C 1.160156 -0.199219 1.214844 -0.1875 1.277344 -0.179688 C 1.34375 -0.171875 1.398438 -0.164062 1.445312 -0.160156 L 1.445312 0 L 0.175781 0 L 0.175781 -0.160156 C 0.214844 -0.164062 0.25 -0.167969 0.292969 -0.171875 C 0.332031 -0.175781 0.367188 -0.179688 0.394531 -0.191406 C 0.441406 -0.203125 0.476562 -0.230469 0.496094 -0.265625 C 0.519531 -0.304688 0.53125 -0.351562 0.53125 -0.410156 L 0.53125 -1.894531 C 0.53125 -1.945312 0.519531 -1.996094 0.496094 -2.042969 C 0.472656 -2.09375 0.4375 -2.132812 0.394531 -2.160156 C 0.363281 -2.179688 0.328125 -2.195312 0.285156 -2.203125 C 0.242188 -2.210938 0.199219 -2.21875 0.148438 -2.222656 L 0.148438 -2.382812 L 0.949219 -2.4375 L 0.984375 -2.402344 L 0.984375 -2.0625 L 0.996094 -2.0625 C 1.097656 -2.195312 1.210938 -2.296875 1.332031 -2.363281 C 1.457031 -2.429688 1.570312 -2.464844 1.671875 -2.464844 C 1.773438 -2.464844 1.859375 -2.433594 1.921875 -2.367188 C 1.988281 -2.300781 2.019531 -2.210938 2.019531 -2.097656 Z "/>
</g>
<g id="glyph-0-3">
<path d="M 1.664062 -0.105469 C 1.558594 -0.0625 1.457031 -0.0234375 1.363281 0.0078125 C 1.269531 0.0351562 1.152344 0.0507812 1.015625 0.0507812 C 0.8125 0.0507812 0.671875 0 0.589844 -0.101562 C 0.507812 -0.203125 0.464844 -0.347656 0.464844 -0.53125 L 0.464844 -2.164062 L 0.03125 -2.164062 L 0.03125 -2.398438 L 0.476562 -2.398438 L 0.476562 -3.148438 L 0.921875 -3.148438 L 0.921875 -2.398438 L 1.609375 -2.398438 L 1.609375 -2.164062 L 0.925781 -2.164062 L 0.925781 -0.816406 C 0.925781 -0.71875 0.929688 -0.632812 0.9375 -0.566406 C 0.945312 -0.496094 0.960938 -0.4375 0.988281 -0.386719 C 1.015625 -0.339844 1.054688 -0.304688 1.105469 -0.28125 C 1.15625 -0.257812 1.226562 -0.242188 1.316406 -0.242188 C 1.355469 -0.242188 1.417969 -0.246094 1.496094 -0.253906 C 1.574219 -0.261719 1.628906 -0.273438 1.664062 -0.28125 Z "/>
</g>
<g id="glyph-0-4">
</g>
<g id="glyph-0-5">
<path d="M 2.648438 -0.21875 L 2.152344 -0.21875 L 2.152344 0.890625 L 1.683594 0.890625 L 1.683594 -0.21875 L 0.121094 -0.21875 L 0.121094 -0.59375 L 1.832031 -2.683594 L 2.152344 -2.683594 L 2.152344 -0.539062 L 2.648438 -0.539062 L 2.648438 -0.21875 M 1.683594 -0.539062 L 1.683594 -2.140625 L 0.359375 -0.539062 Z "/>
</g>
</g>
</defs>
<g fill="rgb(100%, 100%, 100%)" fill-opacity="1">
<use xlink:href="#glyph-0-0" x="30" y="24.584961"/>
<use xlink:href="#glyph-0-1" x="33" y="24.584961"/>
<use xlink:href="#glyph-0-2" x="36" y="24.584961"/>
<use xlink:href="#glyph-0-3" x="38" y="24.584961"/>
<use xlink:href="#glyph-0-4" x="40" y="24.584961"/>
<use xlink:href="#glyph-0-5" x="41" y="24.584961"/>
</g>
</svg>
