<?xml version="1.0" encoding="UTF-8"?>
<svg xmlns="http://www.w3.org/2000/svg" xmlns:xlink="http://www.w3.org/1999/xlink" width="854" height="480" viewBox="0 0 854 480">
<defs>
<g>
<g id="glyph-0-0">
<path d="M 5.621094 0 L 4.167969 0 C 3.847656 -0.503906 3.558594 -0.9375 3.296875 -1.304688 C 3.039062 -1.671875 2.757812 -2.050781 2.453125 -2.441406 L 1.902344 -2.441406 L 1.902344 -0.734375 C 1.902344 -0.644531 1.917969 -0.566406 1.945312 -0.5 C 1.972656 -0.433594 2.03125 -0.382812 2.121094 -0.34375 C 2.167969 -0.328125 2.25 -0.3125 2.363281 -0.296875 C 2.476562 -0.28125 2.570312 -0.273438 2.652344 -0.269531 L 2.652344 0 L 0.371094 0 L 0.371094 -0.269531 C 0.433594 -0.273438 0.519531 -0.285156 0.636719 -0.296875 C 0.75 -0.308594 0.832031 -0.324219 0.878906 -0.34375 C 0.953125 -0.378906 1.007812 -0.425781 1.042969 -0.488281 C 1.078125 -0.554688 1.09375 -0.632812 1.09375 -0.734375 L 1.09375 -4.628906 C 1.09375 -4.71875 1.082031 -4.796875 1.054688 -4.863281 C 1.03125 -4.933594 0.972656 -4.984375 0.878906 -5.019531 C 0.8125 -5.042969 0.730469 -5.0625 0.628906 -5.082031 C 0.527344 -5.101562 0.441406 -5.113281 0.371094 -5.117188 L 0.371094 -5.390625 L 2.859375 -5.390625 C 3.085938 -5.390625 3.300781 -5.367188 3.5 -5.320312 C 3.703125 -5.273438 3.882812 -5.195312 4.042969 -5.09375 C 4.203125 -4.992188 4.328125 -4.859375 4.421875 -4.695312 C 4.515625 -4.53125 4.5625 -4.335938 4.5625 -4.105469 C 4.5625 -3.898438 4.527344 -3.714844 4.464844 -3.554688 C 4.402344 -3.394531 4.308594 -3.257812 4.183594 -3.140625 C 4.070312 -3.03125 3.933594 -2.9375 3.773438 -2.859375 C 3.617188 -2.777344 3.4375 -2.710938 3.246094 -2.65625 C 3.511719 -2.300781 3.734375 -2.007812 3.910156 -1.765625 C 4.085938 -1.523438 4.300781 -1.234375 4.558594 -0.886719 C 4.667969 -0.738281 4.769531 -0.625 4.859375 -0.550781 C 4.949219 -0.480469 5.039062 -0.421875 5.125 -0.375 C 5.191406 -0.34375 5.273438 -0.316406 5.375 -0.300781 C 5.472656 -0.28125 5.554688 -0.273438 5.621094 -0.269531 L 5.621094 0 M 3.621094 -4.015625 C 3.621094 -4.339844 3.527344 -4.601562 3.34375 -4.792969 C 3.15625 -4.980469 2.890625 -5.078125 2.546875 -5.078125 L 1.902344 -5.078125 L 1.902344 -2.769531 L 2.398438 -2.769531 C 2.75 -2.769531 3.039062 -2.878906 3.273438 -3.105469 C 3.507812 -3.328125 3.621094 -3.632812 3.621094 -4.015625 Z "/>
</g>
<g id="glyph-0-1">
<path d="M 4.289062 -0.0664062 L 3.066406 0.015625 L 3.007812 -0.0390625 L 3.007812 -0.511719 L 2.984375 -0.511719 C 2.925781 -0.449219 2.855469 -0.382812 2.78125 -0.308594 C 2.703125 -0.238281 2.617188 -0.171875 2.519531 -0.113281 C 2.40625 -0.046875 2.292969 0.0078125 2.1875 0.0429688 C 2.082031 0.078125 1.933594 0.09375 1.738281 0.09375 C 1.40625 0.09375 1.15625 -0.0117188 0.980469 -0.230469 C 0.808594 -0.445312 0.722656 -0.761719 0.722656 -1.171875 L 0.722656 -2.960938 C 0.722656 -3.054688 0.703125 -3.128906 0.671875 -3.191406 C 0.636719 -3.253906 0.585938 -3.308594 0.519531 -3.351562 C 0.472656 -3.382812 0.414062 -3.40625 0.347656 -3.417969 C 0.277344 -3.433594 0.207031 -3.441406 0.128906 -3.449219 L 0.128906 -3.699219 L 1.378906 -3.789062 L 1.433594 -3.738281 L 1.433594 -1.136719 C 1.433594 -0.863281 1.496094 -0.660156 1.617188 -0.523438 C 1.738281 -0.386719 1.886719 -0.320312 2.054688 -0.320312 C 2.195312 -0.320312 2.316406 -0.339844 2.425781 -0.382812 C 2.535156 -0.425781 2.625 -0.476562 2.699219 -0.535156 C 2.769531 -0.589844 2.828125 -0.644531 2.878906 -0.703125 C 2.933594 -0.761719 2.972656 -0.820312 3 -0.867188 L 3 -2.988281 C 3 -3.074219 2.980469 -3.148438 2.945312 -3.210938 C 2.910156 -3.277344 2.863281 -3.332031 2.796875 -3.375 C 2.753906 -3.40625 2.683594 -3.425781 2.59375 -3.429688 C 2.503906 -3.4375 2.40625 -3.441406 2.292969 -3.449219 L 2.292969 -3.699219 L 3.65625 -3.789062 L 3.714844 -3.738281 L 3.714844 -0.765625 C 3.714844 -0.679688 3.730469 -0.605469 3.765625 -0.546875 C 3.800781 -0.484375 3.851562 -0.433594 3.914062 -0.390625 C 3.960938 -0.363281 4.015625 -0.34375 4.078125 -0.335938 C 4.140625 -0.328125 4.210938 -0.320312 4.289062 -0.320312 Z "/>
</g>
<g id="glyph-0-2">
<path d="M 4.410156 0 L 2.578125 0 L 2.578125 -0.25 C 2.636719 -0.253906 2.699219 -0.261719 2.769531 -0.265625 C 2.839844 -0.269531 2.898438 -0.28125 2.941406 -0.296875 C 3.015625 -0.320312 3.066406 -0.359375 3.101562 -0.414062 C 3.136719 -0.472656 3.152344 -0.546875 3.152344 -0.636719 L 3.152344 -2.5625 C 3.152344 -2.828125 3.089844 -3.035156 2.964844 -3.179688 C 2.839844 -3.324219 2.683594 -3.394531 2.503906 -3.394531 C 2.371094 -3.394531 2.246094 -3.375 2.136719 -3.332031 C 2.023438 -3.289062 1.925781 -3.238281 1.839844 -3.179688 C 1.753906 -3.121094 1.6875 -3.058594 1.640625 -2.992188 C 1.589844 -2.921875 1.554688 -2.871094 1.53125 -2.828125 L 1.53125 -0.675781 C 1.53125 -0.589844 1.546875 -0.519531 1.582031 -0.464844 C 1.617188 -0.40625 1.671875 -0.363281 1.742188 -0.335938 C 1.796875 -0.308594 1.855469 -0.289062 1.914062 -0.277344 C 1.976562 -0.265625 2.042969 -0.253906 2.109375 -0.25 L 2.109375 0 L 0.273438 0 L 0.273438 -0.25 C 0.332031 -0.253906 0.390625 -0.261719 0.453125 -0.265625 C 0.515625 -0.269531 0.570312 -0.28125 0.613281 -0.296875 C 0.6875 -0.320312 0.738281 -0.359375 0.773438 -0.414062 C 0.808594 -0.472656 0.824219 -0.546875 0.824219 -0.636719 L 0.824219 -2.949219 C 0.824219 -3.035156 0.804688 -3.113281 0.769531 -3.183594 C 0.730469 -3.257812 0.679688 -3.316406 0.613281 -3.359375 C 0.566406 -3.390625 0.511719 -3.414062 0.445312 -3.425781 C 0.378906 -3.441406 0.308594 -3.449219 0.230469 -3.457031 L 0.230469 -3.707031 L 1.476562 -3.789062 L 1.53125 -3.738281 L 1.53125 -3.207031 L 1.550781 -3.207031 C 1.609375 -3.269531 1.6875 -3.34375 1.777344 -3.425781 C 1.867188 -3.511719 1.953125 -3.582031 2.035156 -3.632812 C 2.128906 -3.695312 2.242188 -3.746094 2.371094 -3.785156 C 2.5 -3.828125 2.644531 -3.847656 2.804688 -3.847656 C 3.164062 -3.847656 3.433594 -3.734375 3.605469 -3.511719 C 3.777344 -3.285156 3.867188 -2.988281 3.867188 -2.617188 L 3.867188 -0.667969 C 3.867188 -0.578125 3.882812 -0.507812 3.910156 -0.453125 C 3.941406 -0.398438 3.992188 -0.355469 4.066406 -0.328125 C 4.128906 -0.300781 4.179688 -0.285156 4.226562 -0.273438 C 4.269531 -0.261719 4.332031 -0.253906 4.410156 -0.25 Z "/>
</g>
<g id="glyph-0-3">
</g>
<g id="glyph-0-4">
<path d="M 4.191406 -2.511719 C 4.347656 -2.402344 4.480469 -2.265625 4.582031 -2.09375 C 4.6875 -1.921875 4.738281 -1.710938 4.738281 -1.464844 C 4.738281 -1.214844 4.683594 -0.996094 4.574219 -0.8125 C 4.46875 -0.628906 4.324219 -0.476562 4.152344 -0.355469 C 3.980469 -0.242188 3.789062 -0.152344 3.574219 -0.0898438 C 3.363281 -0.03125 3.140625 0 2.914062 0 L 0.359375 0 L 0.359375 -0.269531 C 0.421875 -0.273438 0.511719 -0.285156 0.625 -0.300781 C 0.742188 -0.320312 0.828125 -0.339844 0.878906 -0.359375 C 0.957031 -0.394531 1.011719 -0.445312 1.042969 -0.503906 C 1.078125 -0.5625 1.09375 -0.640625 1.09375 -0.734375 L 1.09375 -4.605469 C 1.09375 -4.691406 1.078125 -4.769531 1.050781 -4.835938 C 1.019531 -4.898438 0.964844 -4.953125 0.878906 -4.992188 C 0.800781 -5.03125 0.714844 -5.0625 0.621094 -5.082031 C 0.527344 -5.101562 0.449219 -5.113281 0.386719 -5.117188 L 0.386719 -5.390625 L 2.875 -5.390625 C 3.066406 -5.390625 3.25 -5.371094 3.425781 -5.332031 C 3.601562 -5.292969 3.769531 -5.226562 3.929688 -5.128906 C 4.078125 -5.042969 4.203125 -4.921875 4.296875 -4.769531 C 4.394531 -4.617188 4.441406 -4.433594 4.441406 -4.214844 C 4.441406 -4.023438 4.410156 -3.855469 4.339844 -3.707031 C 4.273438 -3.558594 4.175781 -3.433594 4.050781 -3.328125 C 3.933594 -3.226562 3.800781 -3.140625 3.652344 -3.070312 C 3.5 -3 3.339844 -2.945312 3.164062 -2.910156 L 3.164062 -2.875 C 3.316406 -2.855469 3.492188 -2.820312 3.683594 -2.757812 C 3.871094 -2.699219 4.042969 -2.617188 4.191406 -2.511719 M 3.273438 -3.324219 C 3.367188 -3.433594 3.433594 -3.550781 3.46875 -3.679688 C 3.503906 -3.808594 3.523438 -3.964844 3.523438 -4.140625 C 3.523438 -4.4375 3.441406 -4.671875 3.28125 -4.839844 C 3.121094 -5.007812 2.863281 -5.09375 2.515625 -5.09375 C 2.433594 -5.09375 2.332031 -5.089844 2.210938 -5.085938 C 2.089844 -5.082031 1.984375 -5.078125 1.902344 -5.078125 L 1.902344 -3.003906 L 2.382812 -3.003906 C 2.589844 -3.003906 2.769531 -3.03125 2.917969 -3.082031 C 3.0625 -3.136719 3.183594 -3.21875 3.273438 -3.324219 M 3.800781 -1.601562 C 3.800781 -1.921875 3.695312 -2.183594 3.480469 -2.386719 C 3.265625 -2.59375 2.960938 -2.695312 2.5625 -2.695312 C 2.402344 -2.695312 2.265625 -2.695312 2.152344 -2.691406 C 2.042969 -2.6875 1.957031 -2.683594 1.902344 -2.679688 L 1.902344 -0.78125 C 1.902344 -0.621094 1.96875 -0.503906 2.097656 -0.421875 C 2.226562 -0.339844 2.40625 -0.300781 2.636719 -0.300781 C 3.011719 -0.300781 3.300781 -0.410156 3.5 -0.628906 C 3.703125 -0.851562 3.800781 -1.175781 3.800781 -1.601562 Z "/>
</g>
</g>
</defs>
<g fill="rgb(100%, 100%, 100%)" fill-opacity="1">
<use xlink:href="#glyph-0-0" x="30" y="27.131836"/>
<use xlink:href="#glyph-0-1" x="35" y="27.131836"/>
<use xlink:href="#glyph-0-2" x="39" y="27.131836"/>
<use xlink:href="#glyph-0-3" x="44" y="27.131836"/>
<use xlink:href="#glyph-0-4" x="46" y="27.131836"/>
</g>
</svg>
