<?xml version="1.0" encoding="UTF-8"?>
<svg xmlns="http://www.w3.org/2000/svg" xmlns:xlink="http://www.w3.org/1999/xlink" width="854" height="480" viewBox="0 0 854 480">
<defs>
<g>
<g id="glyph-0-0">
<path d="M 4.214844 -3.65625 C 4.164062 -3.65625 4.085938 -3.640625 3.984375 -3.613281 C 3.878906 -3.585938 3.800781 -3.558594 3.757812 -3.53125 C 3.691406 -3.484375 3.648438 -3.398438 3.625 -3.269531 C 3.601562 -3.140625 3.59375 -2.976562 3.59375 -2.78125 L 3.59375 0.0390625 L 3.355469 0.0390625 L 1.023438 -3.113281 L 1.023438 -1.125 C 1.023438 -0.902344 1.035156 -0.734375 1.066406 -0.613281 C 1.09375 -0.492188 1.136719 -0.410156 1.195312 -0.359375 C 1.234375 -0.316406 1.320312 -0.28125 1.453125 -0.246094 C 1.582031 -0.210938 1.667969 -0.195312 1.710938 -0.191406 L 1.710938 0 L 0.128906 0 L 0.128906 -0.191406 C 0.179688 -0.195312 0.261719 -0.214844 0.378906 -0.246094 C 0.492188 -0.277344 0.566406 -0.304688 0.59375 -0.332031 C 0.65625 -0.382812 0.699219 -0.457031 0.722656 -0.5625 C 0.746094 -0.667969 0.757812 -0.84375 0.757812 -1.097656 L 0.757812 -2.992188 C 0.757812 -3.074219 0.746094 -3.160156 0.714844 -3.242188 C 0.6875 -3.324219 0.648438 -3.390625 0.597656 -3.433594 C 0.535156 -3.496094 0.445312 -3.546875 0.335938 -3.585938 C 0.222656 -3.628906 0.132812 -3.652344 0.0664062 -3.65625 L 0.0664062 -3.847656 L 1.164062 -3.847656 L 3.328125 -0.914062 L 3.328125 -2.746094 C 3.328125 -2.96875 3.3125 -3.140625 3.285156 -3.261719 C 3.257812 -3.382812 3.214844 -3.460938 3.160156 -3.503906 C 3.109375 -3.535156 3.027344 -3.570312 2.914062 -3.601562 C 2.796875 -3.636719 2.710938 -3.652344 2.652344 -3.65625 L 2.652344 -3.847656 L 4.214844 -3.847656 Z "/>
</g>
<g id="glyph-0-1">
<path d="M 3.253906 -2.886719 L 3.050781 -2.886719 C 3.011719 -3.03125 2.933594 -3.183594 2.8125 -3.34375 C 2.691406 -3.507812 2.578125 -3.597656 2.464844 -3.613281 C 2.410156 -3.621094 2.34375 -3.625 2.265625 -3.628906 C 2.191406 -3.632812 2.101562 -3.636719 2.003906 -3.636719 L 1.359375 -3.636719 L 1.359375 -2.089844 L 1.800781 -2.089844 C 1.9375 -2.089844 2.039062 -2.101562 2.113281 -2.132812 C 2.191406 -2.160156 2.253906 -2.203125 2.304688 -2.261719 C 2.34375 -2.300781 2.375 -2.363281 2.40625 -2.445312 C 2.433594 -2.53125 2.453125 -2.621094 2.464844 -2.714844 L 2.667969 -2.714844 L 2.667969 -1.203125 L 2.464844 -1.203125 C 2.457031 -1.28125 2.4375 -1.371094 2.40625 -1.472656 C 2.375 -1.574219 2.34375 -1.648438 2.304688 -1.691406 C 2.25 -1.757812 2.183594 -1.804688 2.101562 -1.828125 C 2.019531 -1.855469 1.917969 -1.867188 1.800781 -1.867188 L 1.359375 -1.867188 L 1.359375 -0.542969 C 1.359375 -0.484375 1.371094 -0.429688 1.394531 -0.382812 C 1.417969 -0.335938 1.460938 -0.296875 1.519531 -0.269531 C 1.546875 -0.253906 1.605469 -0.242188 1.695312 -0.222656 C 1.785156 -0.203125 1.855469 -0.195312 1.902344 -0.191406 L 1.902344 0 L 0.234375 0 L 0.234375 -0.191406 C 0.289062 -0.195312 0.359375 -0.203125 0.449219 -0.210938 C 0.539062 -0.21875 0.597656 -0.230469 0.625 -0.242188 C 0.679688 -0.265625 0.71875 -0.300781 0.746094 -0.347656 C 0.769531 -0.390625 0.78125 -0.449219 0.78125 -0.511719 L 0.78125 -3.289062 C 0.78125 -3.351562 0.769531 -3.402344 0.75 -3.449219 C 0.730469 -3.496094 0.691406 -3.53125 0.625 -3.5625 C 0.578125 -3.585938 0.511719 -3.605469 0.429688 -3.625 C 0.347656 -3.640625 0.28125 -3.652344 0.234375 -3.65625 L 0.234375 -3.847656 L 3.253906 -3.847656 Z "/>
</g>
<g id="glyph-0-2">
<path d="M 1.960938 0.09375 C 1.730469 0.09375 1.511719 0.046875 1.300781 -0.0429688 C 1.089844 -0.132812 0.902344 -0.265625 0.738281 -0.433594 C 0.578125 -0.605469 0.449219 -0.8125 0.355469 -1.058594 C 0.257812 -1.300781 0.210938 -1.578125 0.210938 -1.886719 C 0.210938 -2.195312 0.257812 -2.472656 0.351562 -2.722656 C 0.445312 -2.976562 0.578125 -3.191406 0.742188 -3.371094 C 0.90625 -3.550781 1.101562 -3.6875 1.324219 -3.785156 C 1.550781 -3.886719 1.789062 -3.933594 2.042969 -3.933594 C 2.234375 -3.933594 2.40625 -3.910156 2.558594 -3.863281 C 2.710938 -3.816406 2.859375 -3.75 2.996094 -3.664062 L 3.109375 -3.847656 L 3.324219 -3.847656 L 3.351562 -2.476562 L 3.128906 -2.476562 C 3.097656 -2.609375 3.054688 -2.753906 2.996094 -2.914062 C 2.941406 -3.070312 2.871094 -3.203125 2.792969 -3.308594 C 2.707031 -3.433594 2.605469 -3.527344 2.484375 -3.597656 C 2.367188 -3.667969 2.230469 -3.703125 2.078125 -3.703125 C 1.902344 -3.703125 1.738281 -3.664062 1.585938 -3.585938 C 1.4375 -3.507812 1.304688 -3.394531 1.195312 -3.242188 C 1.089844 -3.09375 1.007812 -2.910156 0.949219 -2.683594 C 0.890625 -2.457031 0.859375 -2.203125 0.859375 -1.925781 C 0.859375 -1.679688 0.890625 -1.453125 0.953125 -1.246094 C 1.015625 -1.042969 1.105469 -0.863281 1.21875 -0.707031 C 1.335938 -0.550781 1.472656 -0.429688 1.632812 -0.34375 C 1.789062 -0.257812 1.964844 -0.214844 2.160156 -0.214844 C 2.308594 -0.214844 2.441406 -0.238281 2.566406 -0.285156 C 2.6875 -0.328125 2.792969 -0.390625 2.882812 -0.464844 C 2.972656 -0.546875 3.054688 -0.636719 3.121094 -0.738281 C 3.191406 -0.839844 3.246094 -0.949219 3.289062 -1.070312 L 3.496094 -0.972656 C 3.339844 -0.589844 3.132812 -0.316406 2.875 -0.152344 C 2.621094 0.0117188 2.3125 0.09375 1.960938 0.09375 Z "/>
</g>
</g>
</defs>
<g fill="rgb(100%, 100%, 100%)" fill-opacity="1">
<use xlink:href="#glyph-0-0" x="30" y="25.094727"/>
<use xlink:href="#glyph-0-1" x="34" y="25.094727"/>
<use xlink:href="#glyph-0-2" x="37" y="25.094727"/>
</g>
</svg>
