<?xml version="1.0" encoding="UTF-8"?>
<svg xmlns="http://www.w3.org/2000/svg" xmlns:xlink="http://www.w3.org/1999/xlink" width="854" height="480" viewBox="0 0 854 480">
<defs>
<g>
<g id="glyph-0-0">
<path d="M 3.355469 -1.144531 L 3.273438 0 L 0.265625 0 L 0.265625 -0.191406 C 0.308594 -0.195312 0.371094 -0.203125 0.453125 -0.210938 C 0.535156 -0.21875 0.59375 -0.230469 0.625 -0.246094 C 0.679688 -0.269531 0.71875 -0.304688 0.746094 -0.351562 C 0.769531 -0.394531 0.78125 -0.453125 0.78125 -0.523438 L 0.78125 -3.28125 C 0.78125 -3.339844 0.769531 -3.394531 0.75 -3.441406 C 0.730469 -3.488281 0.6875 -3.527344 0.625 -3.554688 C 0.585938 -3.578125 0.527344 -3.597656 0.453125 -3.621094 C 0.375 -3.640625 0.316406 -3.652344 0.265625 -3.65625 L 0.265625 -3.847656 L 1.890625 -3.847656 L 1.890625 -3.65625 C 1.839844 -3.65625 1.773438 -3.644531 1.695312 -3.628906 C 1.613281 -3.613281 1.554688 -3.597656 1.519531 -3.585938 C 1.457031 -3.566406 1.414062 -3.527344 1.394531 -3.476562 C 1.371094 -3.421875 1.359375 -3.367188 1.359375 -3.308594 L 1.359375 -0.722656 C 1.359375 -0.601562 1.363281 -0.507812 1.375 -0.445312 C 1.386719 -0.378906 1.417969 -0.328125 1.460938 -0.289062 C 1.5 -0.257812 1.5625 -0.238281 1.644531 -0.226562 C 1.726562 -0.214844 1.84375 -0.210938 1.992188 -0.210938 C 2.058594 -0.210938 2.128906 -0.214844 2.199219 -0.21875 C 2.273438 -0.21875 2.339844 -0.226562 2.40625 -0.238281 C 2.46875 -0.25 2.527344 -0.265625 2.582031 -0.285156 C 2.632812 -0.300781 2.675781 -0.328125 2.699219 -0.355469 C 2.773438 -0.4375 2.859375 -0.566406 2.957031 -0.734375 C 3.058594 -0.902344 3.125 -1.039062 3.164062 -1.144531 Z "/>
</g>
<g id="glyph-0-1">
<path d="M 3.855469 0 L 2.253906 0 L 2.253906 -0.191406 C 2.394531 -0.203125 2.511719 -0.21875 2.605469 -0.246094 C 2.699219 -0.273438 2.746094 -0.308594 2.746094 -0.347656 C 2.746094 -0.363281 2.742188 -0.382812 2.742188 -0.40625 C 2.738281 -0.429688 2.730469 -0.453125 2.722656 -0.46875 L 2.40625 -1.332031 L 1.054688 -1.332031 C 1.003906 -1.207031 0.960938 -1.09375 0.929688 -1 C 0.898438 -0.90625 0.871094 -0.820312 0.84375 -0.742188 C 0.820312 -0.664062 0.804688 -0.597656 0.796875 -0.550781 C 0.785156 -0.5 0.78125 -0.460938 0.78125 -0.429688 C 0.78125 -0.359375 0.839844 -0.304688 0.953125 -0.261719 C 1.066406 -0.222656 1.195312 -0.199219 1.339844 -0.191406 L 1.339844 0 L -0.109375 0 L -0.109375 -0.191406 C -0.0625 -0.195312 -0.00390625 -0.207031 0.0664062 -0.222656 C 0.136719 -0.242188 0.195312 -0.265625 0.238281 -0.292969 C 0.3125 -0.34375 0.367188 -0.394531 0.40625 -0.445312 C 0.445312 -0.5 0.484375 -0.574219 0.523438 -0.667969 C 0.71875 -1.148438 0.929688 -1.691406 1.164062 -2.296875 C 1.398438 -2.898438 1.605469 -3.433594 1.789062 -3.902344 L 2.003906 -3.902344 L 3.289062 -0.582031 C 3.316406 -0.511719 3.347656 -0.457031 3.378906 -0.414062 C 3.414062 -0.367188 3.460938 -0.328125 3.523438 -0.285156 C 3.566406 -0.257812 3.621094 -0.238281 3.6875 -0.222656 C 3.753906 -0.203125 3.808594 -0.195312 3.855469 -0.191406 L 3.855469 0 M 2.304688 -1.574219 L 1.722656 -3.066406 L 1.148438 -1.574219 Z "/>
</g>
<g id="glyph-0-2">
<path d="M 4.214844 -3.65625 C 4.164062 -3.65625 4.085938 -3.640625 3.984375 -3.613281 C 3.878906 -3.585938 3.800781 -3.558594 3.757812 -3.53125 C 3.691406 -3.484375 3.648438 -3.398438 3.625 -3.269531 C 3.601562 -3.140625 3.59375 -2.976562 3.59375 -2.78125 L 3.59375 0.0390625 L 3.355469 0.0390625 L 1.023438 -3.113281 L 1.023438 -1.125 C 1.023438 -0.902344 1.035156 -0.734375 1.066406 -0.613281 C 1.09375 -0.492188 1.136719 -0.410156 1.195312 -0.359375 C 1.234375 -0.316406 1.320312 -0.28125 1.453125 -0.246094 C 1.582031 -0.210938 1.667969 -0.195312 1.710938 -0.191406 L 1.710938 0 L 0.128906 0 L 0.128906 -0.191406 C 0.179688 -0.195312 0.261719 -0.214844 0.378906 -0.246094 C 0.492188 -0.277344 0.566406 -0.304688 0.59375 -0.332031 C 0.65625 -0.382812 0.699219 -0.457031 0.722656 -0.5625 C 0.746094 -0.667969 0.757812 -0.84375 0.757812 -1.097656 L 0.757812 -2.992188 C 0.757812 -3.074219 0.746094 -3.160156 0.714844 -3.242188 C 0.6875 -3.324219 0.648438 -3.390625 0.597656 -3.433594 C 0.535156 -3.496094 0.445312 -3.546875 0.335938 -3.585938 C 0.222656 -3.628906 0.132812 -3.652344 0.0664062 -3.65625 L 0.0664062 -3.847656 L 1.164062 -3.847656 L 3.328125 -0.914062 L 3.328125 -2.746094 C 3.328125 -2.96875 3.3125 -3.140625 3.285156 -3.261719 C 3.257812 -3.382812 3.214844 -3.460938 3.160156 -3.503906 C 3.109375 -3.535156 3.027344 -3.570312 2.914062 -3.601562 C 2.796875 -3.636719 2.710938 -3.652344 2.652344 -3.65625 L 2.652344 -3.847656 L 4.214844 -3.847656 Z "/>
</g>
<g id="glyph-0-3">
</g>
</g>
</defs>
<g fill="rgb(100%, 100%, 100%)" fill-opacity="1">
<use xlink:href="#glyph-0-0" x="30" y="25.094727"/>
<use xlink:href="#glyph-0-1" x="33" y="25.094727"/>
<use xlink:href="#glyph-0-2" x="37" y="25.094727"/>
<use xlink:href="#glyph-0-3" x="41" y="25.094727"/>
<use xlink:href="#glyph-0-1" x="42" y="25.094727"/>
</g>
</svg>
