<?xml version="1.0" encoding="UTF-8"?>
<svg xmlns="http://www.w3.org/2000/svg" xmlns:xlink="http://www.w3.org/1999/xlink" width="854" height="480" viewBox="0 0 854 480">
<defs>
<g>
<g id="glyph-0-0">
<path d="M 5.949219 0 L 3.714844 0 L 3.714844 -0.269531 C 3.773438 -0.273438 3.863281 -0.28125 3.976562 -0.292969 C 4.09375 -0.300781 4.171875 -0.316406 4.214844 -0.339844 C 4.292969 -0.367188 4.347656 -0.414062 4.382812 -0.476562 C 4.417969 -0.539062 4.433594 -0.617188 4.433594 -0.71875 L 4.433594 -2.636719 L 1.902344 -2.636719 L 1.902344 -0.757812 C 1.902344 -0.671875 1.917969 -0.597656 1.945312 -0.535156 C 1.976562 -0.476562 2.03125 -0.421875 2.117188 -0.375 C 2.160156 -0.351562 2.238281 -0.332031 2.347656 -0.308594 C 2.457031 -0.285156 2.546875 -0.273438 2.609375 -0.269531 L 2.609375 0 L 0.371094 0 L 0.371094 -0.269531 C 0.433594 -0.273438 0.519531 -0.28125 0.636719 -0.292969 C 0.75 -0.300781 0.832031 -0.316406 0.875 -0.339844 C 0.949219 -0.367188 1.003906 -0.414062 1.039062 -0.476562 C 1.074219 -0.539062 1.09375 -0.617188 1.09375 -0.71875 L 1.09375 -4.605469 C 1.09375 -4.6875 1.078125 -4.761719 1.042969 -4.828125 C 1.011719 -4.894531 0.953125 -4.949219 0.875 -4.984375 C 0.804688 -5.019531 0.722656 -5.046875 0.625 -5.074219 C 0.527344 -5.097656 0.441406 -5.113281 0.371094 -5.117188 L 0.371094 -5.390625 L 2.609375 -5.390625 L 2.609375 -5.117188 C 2.539062 -5.117188 2.453125 -5.105469 2.347656 -5.085938 C 2.246094 -5.066406 2.167969 -5.046875 2.117188 -5.027344 C 2.03125 -4.996094 1.976562 -4.945312 1.945312 -4.875 C 1.917969 -4.804688 1.902344 -4.726562 1.902344 -4.644531 L 1.902344 -2.972656 L 4.433594 -2.972656 L 4.433594 -4.605469 C 4.433594 -4.6875 4.417969 -4.761719 4.386719 -4.828125 C 4.351562 -4.894531 4.296875 -4.949219 4.214844 -4.984375 C 4.148438 -5.019531 4.0625 -5.046875 3.964844 -5.074219 C 3.867188 -5.097656 3.785156 -5.113281 3.714844 -5.117188 L 3.714844 -5.390625 L 5.949219 -5.390625 L 5.949219 -5.117188 C 5.878906 -5.117188 5.792969 -5.105469 5.691406 -5.085938 C 5.589844 -5.066406 5.511719 -5.046875 5.460938 -5.027344 C 5.375 -4.996094 5.316406 -4.945312 5.289062 -4.875 C 5.257812 -4.804688 5.246094 -4.726562 5.246094 -4.644531 L 5.246094 -0.757812 C 5.246094 -0.671875 5.257812 -0.597656 5.289062 -0.535156 C 5.316406 -0.476562 5.375 -0.421875 5.460938 -0.375 C 5.503906 -0.351562 5.582031 -0.332031 5.691406 -0.308594 C 5.800781 -0.285156 5.886719 -0.273438 5.949219 -0.269531 Z "/>
</g>
<g id="glyph-0-1">
<path d="M 5.820312 -5.117188 C 5.75 -5.117188 5.648438 -5.101562 5.511719 -5.074219 C 5.375 -5.046875 5.261719 -5.003906 5.175781 -4.949219 C 5.089844 -4.890625 5.03125 -4.769531 4.996094 -4.585938 C 4.964844 -4.40625 4.949219 -4.183594 4.949219 -3.917969 L 4.949219 -1.574219 C 4.949219 -1.277344 4.886719 -1.019531 4.761719 -0.796875 C 4.636719 -0.578125 4.476562 -0.394531 4.273438 -0.253906 C 4.070312 -0.117188 3.863281 -0.0195312 3.640625 0.0390625 C 3.417969 0.0976562 3.207031 0.128906 3.003906 0.128906 C 2.679688 0.128906 2.390625 0.0859375 2.136719 0 C 1.886719 -0.0820312 1.671875 -0.199219 1.5 -0.339844 C 1.332031 -0.484375 1.203125 -0.652344 1.117188 -0.835938 C 1.03125 -1.023438 0.988281 -1.21875 0.988281 -1.421875 L 0.988281 -4.605469 C 0.988281 -4.695312 0.972656 -4.769531 0.945312 -4.828125 C 0.914062 -4.886719 0.855469 -4.941406 0.765625 -4.992188 C 0.703125 -5.027344 0.621094 -5.058594 0.523438 -5.078125 C 0.425781 -5.101562 0.34375 -5.113281 0.28125 -5.117188 L 0.28125 -5.390625 L 2.523438 -5.390625 L 2.523438 -5.117188 C 2.453125 -5.117188 2.363281 -5.105469 2.257812 -5.085938 C 2.148438 -5.066406 2.070312 -5.046875 2.019531 -5.027344 C 1.933594 -4.996094 1.875 -4.945312 1.847656 -4.875 C 1.820312 -4.804688 1.804688 -4.726562 1.804688 -4.644531 L 1.804688 -1.667969 C 1.804688 -1.527344 1.820312 -1.375 1.851562 -1.214844 C 1.882812 -1.058594 1.945312 -0.910156 2.039062 -0.773438 C 2.136719 -0.636719 2.273438 -0.519531 2.441406 -0.433594 C 2.613281 -0.34375 2.84375 -0.300781 3.140625 -0.300781 C 3.417969 -0.300781 3.652344 -0.34375 3.839844 -0.433594 C 4.03125 -0.519531 4.179688 -0.636719 4.289062 -0.78125 C 4.390625 -0.917969 4.464844 -1.0625 4.507812 -1.210938 C 4.550781 -1.359375 4.570312 -1.511719 4.570312 -1.664062 L 4.570312 -3.871094 C 4.570312 -4.152344 4.550781 -4.382812 4.511719 -4.558594 C 4.472656 -4.738281 4.410156 -4.855469 4.332031 -4.910156 C 4.246094 -4.972656 4.125 -5.023438 3.96875 -5.058594 C 3.816406 -5.09375 3.699219 -5.113281 3.617188 -5.117188 L 3.617188 -5.390625 L 5.820312 -5.390625 Z "/>
</g>
<g id="glyph-0-2">
<path d="M 4.191406 -2.511719 C 4.347656 -2.402344 4.480469 -2.265625 4.582031 -2.09375 C 4.6875 -1.921875 4.738281 -1.710938 4.738281 -1.464844 C 4.738281 -1.214844 4.683594 -0.996094 4.574219 -0.8125 C 4.46875 -0.628906 4.324219 -0.476562 4.152344 -0.355469 C 3.980469 -0.242188 3.789062 -0.152344 3.574219 -0.0898438 C 3.363281 -0.03125 3.140625 0 2.914062 0 L 0.359375 0 L 0.359375 -0.269531 C 0.421875 -0.273438 0.511719 -0.285156 0.625 -0.300781 C 0.742188 -0.320312 0.828125 -0.339844 0.878906 -0.359375 C 0.957031 -0.394531 1.011719 -0.445312 1.042969 -0.503906 C 1.078125 -0.5625 1.09375 -0.640625 1.09375 -0.734375 L 1.09375 -4.605469 C 1.09375 -4.691406 1.078125 -4.769531 1.050781 -4.835938 C 1.019531 -4.898438 0.964844 -4.953125 0.878906 -4.992188 C 0.800781 -5.03125 0.714844 -5.0625 0.621094 -5.082031 C 0.527344 -5.101562 0.449219 -5.113281 0.386719 -5.117188 L 0.386719 -5.390625 L 2.875 -5.390625 C 3.066406 -5.390625 3.25 -5.371094 3.425781 -5.332031 C 3.601562 -5.292969 3.769531 -5.226562 3.929688 -5.128906 C 4.078125 -5.042969 4.203125 -4.921875 4.296875 -4.769531 C 4.394531 -4.617188 4.441406 -4.433594 4.441406 -4.214844 C 4.441406 -4.023438 4.410156 -3.855469 4.339844 -3.707031 C 4.273438 -3.558594 4.175781 -3.433594 4.050781 -3.328125 C 3.933594 -3.226562 3.800781 -3.140625 3.652344 -3.070312 C 3.5 -3 3.339844 -2.945312 3.164062 -2.910156 L 3.164062 -2.875 C 3.316406 -2.855469 3.492188 -2.820312 3.683594 -2.757812 C 3.871094 -2.699219 4.042969 -2.617188 4.191406 -2.511719 M 3.273438 -3.324219 C 3.367188 -3.433594 3.433594 -3.550781 3.46875 -3.679688 C 3.503906 -3.808594 3.523438 -3.964844 3.523438 -4.140625 C 3.523438 -4.4375 3.441406 -4.671875 3.28125 -4.839844 C 3.121094 -5.007812 2.863281 -5.09375 2.515625 -5.09375 C 2.433594 -5.09375 2.332031 -5.089844 2.210938 -5.085938 C 2.089844 -5.082031 1.984375 -5.078125 1.902344 -5.078125 L 1.902344 -3.003906 L 2.382812 -3.003906 C 2.589844 -3.003906 2.769531 -3.03125 2.917969 -3.082031 C 3.0625 -3.136719 3.183594 -3.21875 3.273438 -3.324219 M 3.800781 -1.601562 C 3.800781 -1.921875 3.695312 -2.183594 3.480469 -2.386719 C 3.265625 -2.59375 2.960938 -2.695312 2.5625 -2.695312 C 2.402344 -2.695312 2.265625 -2.695312 2.152344 -2.691406 C 2.042969 -2.6875 1.957031 -2.683594 1.902344 -2.679688 L 1.902344 -0.78125 C 1.902344 -0.621094 1.96875 -0.503906 2.097656 -0.421875 C 2.226562 -0.339844 2.40625 -0.300781 2.636719 -0.300781 C 3.011719 -0.300781 3.300781 -0.410156 3.5 -0.628906 C 3.703125 -0.851562 3.800781 -1.175781 3.800781 -1.601562 Z "/>
</g>
</g>
</defs>
<g fill="rgb(100%, 100%, 100%)" fill-opacity="1">
<use xlink:href="#glyph-0-0" x="30" y="27.131836"/>
<use xlink:href="#glyph-0-1" x="36" y="27.131836"/>
<use xlink:href="#glyph-0-2" x="42" y="27.131836"/>
</g>
</svg>
