<?xml version="1.0" encoding="UTF-8"?>
<svg xmlns="http://www.w3.org/2000/svg" xmlns:xlink="http://www.w3.org/1999/xlink" width="854" height="480" viewBox="0 0 854 480">
<defs>
<g>
<g id="glyph-0-0">
<path d="M 3.46875 0 L 2.027344 0 L 2.027344 -0.171875 C 2.15625 -0.179688 2.261719 -0.199219 2.34375 -0.222656 C 2.429688 -0.246094 2.472656 -0.277344 2.472656 -0.3125 C 2.472656 -0.328125 2.46875 -0.34375 2.464844 -0.367188 C 2.464844 -0.386719 2.457031 -0.40625 2.453125 -0.421875 L 2.164062 -1.199219 L 0.949219 -1.199219 C 0.902344 -1.085938 0.867188 -0.984375 0.835938 -0.902344 C 0.808594 -0.816406 0.78125 -0.738281 0.761719 -0.667969 C 0.738281 -0.597656 0.722656 -0.539062 0.714844 -0.496094 C 0.707031 -0.453125 0.703125 -0.414062 0.703125 -0.386719 C 0.703125 -0.324219 0.753906 -0.273438 0.859375 -0.238281 C 0.960938 -0.199219 1.074219 -0.179688 1.203125 -0.171875 L 1.203125 0 L -0.101562 0 L -0.101562 -0.171875 C -0.0585938 -0.175781 -0.00390625 -0.1875 0.0585938 -0.203125 C 0.121094 -0.21875 0.175781 -0.238281 0.214844 -0.265625 C 0.28125 -0.308594 0.332031 -0.355469 0.367188 -0.402344 C 0.402344 -0.449219 0.4375 -0.515625 0.472656 -0.601562 C 0.644531 -1.035156 0.835938 -1.523438 1.046875 -2.066406 C 1.257812 -2.609375 1.445312 -3.089844 1.609375 -3.511719 L 1.804688 -3.511719 L 2.960938 -0.523438 C 2.984375 -0.460938 3.011719 -0.410156 3.042969 -0.371094 C 3.074219 -0.332031 3.117188 -0.292969 3.171875 -0.257812 C 3.207031 -0.234375 3.257812 -0.214844 3.316406 -0.199219 C 3.378906 -0.183594 3.429688 -0.175781 3.46875 -0.171875 L 3.46875 0 M 2.074219 -1.414062 L 1.550781 -2.761719 L 1.035156 -1.414062 Z "/>
</g>
<g id="glyph-0-1">
</g>
<g id="glyph-0-2">
<path d="M 1.664062 -1.132812 L 0.207031 -1.132812 L 0.207031 -1.519531 L 1.664062 -1.519531 Z "/>
</g>
<g id="glyph-0-3">
<path d="M 2.742188 -1.226562 L 0.484375 -0.0546875 L 0.484375 -0.390625 L 2.359375 -1.367188 L 0.484375 -2.34375 L 0.484375 -2.679688 L 2.742188 -1.503906 Z "/>
</g>
<g id="glyph-0-4">
<path d="M 2.890625 -2.609375 C 2.890625 -2.429688 2.855469 -2.269531 2.785156 -2.128906 C 2.714844 -1.992188 2.617188 -1.875 2.492188 -1.785156 C 2.367188 -1.695312 2.230469 -1.625 2.082031 -1.585938 C 1.933594 -1.542969 1.777344 -1.519531 1.609375 -1.519531 L 1.222656 -1.519531 L 1.222656 -0.472656 C 1.222656 -0.414062 1.234375 -0.363281 1.25 -0.320312 C 1.269531 -0.277344 1.308594 -0.246094 1.367188 -0.222656 C 1.398438 -0.210938 1.449219 -0.199219 1.523438 -0.191406 C 1.597656 -0.179688 1.664062 -0.175781 1.726562 -0.171875 L 1.726562 0 L 0.238281 0 L 0.238281 -0.171875 C 0.277344 -0.175781 0.335938 -0.183594 0.410156 -0.191406 C 0.484375 -0.199219 0.535156 -0.210938 0.5625 -0.222656 C 0.613281 -0.242188 0.648438 -0.273438 0.671875 -0.316406 C 0.691406 -0.355469 0.703125 -0.40625 0.703125 -0.472656 L 0.703125 -2.972656 C 0.703125 -3.027344 0.695312 -3.078125 0.679688 -3.125 C 0.664062 -3.171875 0.625 -3.203125 0.5625 -3.226562 C 0.503906 -3.25 0.441406 -3.265625 0.378906 -3.273438 C 0.320312 -3.28125 0.265625 -3.289062 0.222656 -3.289062 L 0.222656 -3.464844 L 1.804688 -3.464844 C 2.125 -3.464844 2.386719 -3.386719 2.589844 -3.230469 C 2.789062 -3.074219 2.890625 -2.867188 2.890625 -2.609375 M 2.148438 -2.019531 C 2.203125 -2.097656 2.242188 -2.179688 2.257812 -2.261719 C 2.277344 -2.347656 2.285156 -2.421875 2.285156 -2.488281 C 2.285156 -2.582031 2.273438 -2.675781 2.253906 -2.769531 C 2.230469 -2.867188 2.191406 -2.949219 2.140625 -3.023438 C 2.082031 -3.097656 2.007812 -3.160156 1.914062 -3.199219 C 1.820312 -3.242188 1.707031 -3.265625 1.566406 -3.265625 L 1.222656 -3.265625 L 1.222656 -1.734375 L 1.472656 -1.734375 C 1.648438 -1.734375 1.789062 -1.761719 1.902344 -1.816406 C 2.011719 -1.871094 2.09375 -1.9375 2.148438 -2.019531 Z "/>
</g>
<g id="glyph-0-5">
<path d="M 1.976562 0 L 0.328125 0 L 0.328125 -0.171875 C 0.378906 -0.175781 0.453125 -0.183594 0.558594 -0.195312 C 0.660156 -0.203125 0.734375 -0.214844 0.773438 -0.226562 C 0.820312 -0.242188 0.859375 -0.269531 0.886719 -0.304688 C 0.914062 -0.34375 0.929688 -0.398438 0.929688 -0.472656 L 0.929688 -2.183594 L 0.320312 -2.183594 L 0.320312 -2.390625 L 0.453125 -2.390625 C 0.628906 -2.390625 0.789062 -2.421875 0.925781 -2.488281 C 1.066406 -2.554688 1.164062 -2.621094 1.226562 -2.699219 L 1.429688 -2.699219 C 1.421875 -2.59375 1.417969 -2.46875 1.414062 -2.328125 C 1.410156 -2.183594 1.40625 -2.058594 1.40625 -1.945312 L 1.40625 -0.5 C 1.40625 -0.441406 1.417969 -0.390625 1.445312 -0.34375 C 1.46875 -0.300781 1.503906 -0.269531 1.554688 -0.246094 C 1.59375 -0.230469 1.664062 -0.210938 1.761719 -0.199219 C 1.855469 -0.183594 1.929688 -0.175781 1.976562 -0.171875 Z "/>
</g>
</g>
</defs>
<g fill="rgb(100%, 100%, 100%)" fill-opacity="1">
<use xlink:href="#glyph-0-0" x="30" y="24.584961"/>
<use xlink:href="#glyph-0-1" x="33" y="24.584961"/>
<use xlink:href="#glyph-0-2" x="34" y="24.584961"/>
<use xlink:href="#glyph-0-3" x="36" y="24.584961"/>
<use xlink:href="#glyph-0-1" x="39" y="24.584961"/>
<use xlink:href="#glyph-0-4" x="40" y="24.584961"/>
<use xlink:href="#glyph-0-5" x="43" y="24.584961"/>
</g>
</svg>
