<?xml version="1.0" encoding="UTF-8"?>
<svg xmlns="http://www.w3.org/2000/svg" xmlns:xlink="http://www.w3.org/1999/xlink" width="854" height="480" viewBox="0 0 854 480">
<defs>
<g>
<g id="glyph-0-0">
<path d="M 3.160156 -1.519531 C 3.160156 -1.257812 3.113281 -1.03125 3.015625 -0.839844 C 2.914062 -0.648438 2.789062 -0.488281 2.628906 -0.367188 C 2.472656 -0.242188 2.292969 -0.152344 2.09375 -0.0898438 C 1.894531 -0.03125 1.691406 0 1.480469 0 L 0.203125 0 L 0.203125 -0.152344 C 0.246094 -0.152344 0.300781 -0.15625 0.367188 -0.164062 C 0.433594 -0.175781 0.480469 -0.183594 0.5 -0.191406 C 0.542969 -0.210938 0.574219 -0.238281 0.59375 -0.277344 C 0.613281 -0.3125 0.625 -0.359375 0.625 -0.410156 L 0.625 -2.632812 C 0.625 -2.679688 0.617188 -2.726562 0.601562 -2.765625 C 0.582031 -2.804688 0.550781 -2.835938 0.5 -2.859375 C 0.457031 -2.878906 0.40625 -2.894531 0.355469 -2.90625 C 0.304688 -2.914062 0.257812 -2.921875 0.222656 -2.925781 L 0.222656 -3.078125 L 1.566406 -3.078125 C 1.75 -3.078125 1.933594 -3.050781 2.113281 -2.992188 C 2.292969 -2.9375 2.449219 -2.859375 2.582031 -2.761719 C 2.761719 -2.632812 2.90625 -2.464844 3.007812 -2.257812 C 3.109375 -2.046875 3.160156 -1.804688 3.160156 -1.519531 M 2.628906 -1.523438 C 2.628906 -1.730469 2.601562 -1.914062 2.546875 -2.082031 C 2.492188 -2.25 2.414062 -2.394531 2.304688 -2.519531 C 2.207031 -2.636719 2.085938 -2.730469 1.9375 -2.800781 C 1.792969 -2.867188 1.632812 -2.902344 1.453125 -2.902344 C 1.394531 -2.902344 1.328125 -2.898438 1.253906 -2.898438 C 1.179688 -2.894531 1.125 -2.894531 1.085938 -2.890625 L 1.085938 -0.527344 C 1.085938 -0.394531 1.125 -0.304688 1.203125 -0.253906 C 1.277344 -0.203125 1.398438 -0.179688 1.554688 -0.179688 C 1.738281 -0.179688 1.898438 -0.210938 2.039062 -0.277344 C 2.175781 -0.339844 2.285156 -0.429688 2.371094 -0.546875 C 2.460938 -0.667969 2.527344 -0.808594 2.566406 -0.96875 C 2.609375 -1.128906 2.628906 -1.3125 2.628906 -1.523438 Z "/>
</g>
<g id="glyph-0-1">
</g>
<g id="glyph-0-2">
<path d="M 1.476562 -1.007812 L 0.183594 -1.007812 L 0.183594 -1.351562 L 1.476562 -1.351562 Z "/>
</g>
<g id="glyph-0-3">
<path d="M 2.4375 -1.089844 L 0.433594 -0.046875 L 0.433594 -0.347656 L 2.097656 -1.214844 L 0.433594 -2.082031 L 0.433594 -2.378906 L 2.4375 -1.335938 Z "/>
</g>
<g id="glyph-0-4">
<path d="M 2.570312 -2.320312 C 2.570312 -2.160156 2.539062 -2.015625 2.476562 -1.894531 C 2.410156 -1.769531 2.324219 -1.667969 2.214844 -1.585938 C 2.101562 -1.503906 1.984375 -1.445312 1.851562 -1.410156 C 1.71875 -1.371094 1.578125 -1.351562 1.433594 -1.351562 L 1.085938 -1.351562 L 1.085938 -0.417969 C 1.085938 -0.367188 1.09375 -0.324219 1.113281 -0.285156 C 1.128906 -0.246094 1.164062 -0.21875 1.214844 -0.199219 C 1.242188 -0.1875 1.289062 -0.179688 1.351562 -0.167969 C 1.417969 -0.160156 1.480469 -0.15625 1.535156 -0.152344 L 1.535156 0 L 0.210938 0 L 0.210938 -0.152344 C 0.246094 -0.15625 0.296875 -0.160156 0.363281 -0.167969 C 0.429688 -0.175781 0.476562 -0.1875 0.5 -0.199219 C 0.542969 -0.214844 0.574219 -0.242188 0.59375 -0.28125 C 0.613281 -0.316406 0.625 -0.363281 0.625 -0.417969 L 0.625 -2.640625 C 0.625 -2.691406 0.617188 -2.738281 0.601562 -2.777344 C 0.589844 -2.816406 0.554688 -2.847656 0.5 -2.867188 C 0.445312 -2.886719 0.390625 -2.902344 0.335938 -2.910156 C 0.28125 -2.917969 0.238281 -2.921875 0.199219 -2.925781 L 0.199219 -3.078125 L 1.605469 -3.078125 C 1.890625 -3.078125 2.121094 -3.011719 2.300781 -2.871094 C 2.480469 -2.734375 2.570312 -2.550781 2.570312 -2.320312 M 1.910156 -1.792969 C 1.957031 -1.863281 1.992188 -1.9375 2.007812 -2.011719 C 2.023438 -2.085938 2.03125 -2.152344 2.03125 -2.210938 C 2.03125 -2.292969 2.019531 -2.378906 2 -2.460938 C 1.980469 -2.546875 1.949219 -2.621094 1.902344 -2.6875 C 1.851562 -2.753906 1.785156 -2.808594 1.703125 -2.84375 C 1.617188 -2.882812 1.515625 -2.902344 1.394531 -2.902344 L 1.085938 -2.902344 L 1.085938 -1.539062 L 1.308594 -1.539062 C 1.464844 -1.539062 1.589844 -1.566406 1.6875 -1.613281 C 1.785156 -1.660156 1.859375 -1.722656 1.910156 -1.792969 Z "/>
</g>
<g id="glyph-0-5">
<path d="M 2.242188 -1.089844 C 2.242188 -0.941406 2.21875 -0.792969 2.171875 -0.648438 C 2.125 -0.503906 2.054688 -0.378906 1.96875 -0.277344 C 1.867188 -0.160156 1.753906 -0.0742188 1.621094 -0.0195312 C 1.488281 0.0351562 1.339844 0.0664062 1.175781 0.0664062 C 1.042969 0.0664062 0.910156 0.0390625 0.789062 -0.0117188 C 0.664062 -0.0625 0.554688 -0.136719 0.460938 -0.238281 C 0.367188 -0.332031 0.292969 -0.453125 0.234375 -0.589844 C 0.179688 -0.730469 0.152344 -0.886719 0.152344 -1.0625 C 0.152344 -1.394531 0.25 -1.667969 0.445312 -1.882812 C 0.640625 -2.09375 0.894531 -2.199219 1.210938 -2.199219 C 1.507812 -2.199219 1.757812 -2.097656 1.953125 -1.898438 C 2.144531 -1.695312 2.242188 -1.425781 2.242188 -1.089844 M 1.792969 -1.085938 C 1.792969 -1.195312 1.785156 -1.308594 1.761719 -1.429688 C 1.738281 -1.550781 1.707031 -1.652344 1.664062 -1.738281 C 1.617188 -1.828125 1.558594 -1.898438 1.480469 -1.953125 C 1.40625 -2.007812 1.3125 -2.035156 1.207031 -2.035156 C 1.09375 -2.035156 1 -2.007812 0.917969 -1.953125 C 0.839844 -1.898438 0.777344 -1.824219 0.726562 -1.726562 C 0.679688 -1.640625 0.648438 -1.539062 0.628906 -1.425781 C 0.609375 -1.3125 0.601562 -1.203125 0.601562 -1.097656 C 0.601562 -0.960938 0.613281 -0.832031 0.636719 -0.710938 C 0.65625 -0.59375 0.691406 -0.488281 0.742188 -0.398438 C 0.792969 -0.304688 0.855469 -0.230469 0.929688 -0.179688 C 1.003906 -0.125 1.09375 -0.101562 1.207031 -0.101562 C 1.386719 -0.101562 1.53125 -0.1875 1.636719 -0.363281 C 1.742188 -0.539062 1.792969 -0.777344 1.792969 -1.085938 Z "/>
</g>
<g id="glyph-0-6">
<path d="M 1.792969 -1.863281 C 1.792969 -1.789062 1.777344 -1.726562 1.742188 -1.667969 C 1.703125 -1.609375 1.648438 -1.582031 1.574219 -1.582031 C 1.492188 -1.582031 1.429688 -1.601562 1.386719 -1.644531 C 1.34375 -1.6875 1.324219 -1.734375 1.324219 -1.785156 C 1.324219 -1.816406 1.328125 -1.84375 1.332031 -1.871094 C 1.335938 -1.898438 1.339844 -1.921875 1.34375 -1.949219 C 1.277344 -1.949219 1.199219 -1.921875 1.105469 -1.867188 C 1.015625 -1.8125 0.9375 -1.734375 0.875 -1.632812 L 0.875 -0.386719 C 0.875 -0.335938 0.882812 -0.292969 0.902344 -0.261719 C 0.921875 -0.230469 0.953125 -0.207031 0.996094 -0.191406 C 1.03125 -0.175781 1.078125 -0.164062 1.136719 -0.160156 C 1.191406 -0.152344 1.242188 -0.144531 1.285156 -0.144531 L 1.285156 0 L 0.15625 0 L 0.15625 -0.144531 C 0.191406 -0.144531 0.222656 -0.148438 0.257812 -0.152344 C 0.292969 -0.15625 0.324219 -0.160156 0.351562 -0.167969 C 0.390625 -0.183594 0.421875 -0.203125 0.441406 -0.238281 C 0.460938 -0.269531 0.472656 -0.3125 0.472656 -0.363281 L 0.472656 -1.683594 C 0.472656 -1.730469 0.460938 -1.773438 0.4375 -1.816406 C 0.417969 -1.859375 0.390625 -1.894531 0.351562 -1.921875 C 0.324219 -1.9375 0.292969 -1.949219 0.253906 -1.957031 C 0.214844 -1.964844 0.175781 -1.972656 0.132812 -1.976562 L 0.132812 -2.117188 L 0.84375 -2.164062 L 0.875 -2.136719 L 0.875 -1.832031 L 0.886719 -1.832031 C 0.976562 -1.949219 1.074219 -2.039062 1.183594 -2.101562 C 1.292969 -2.160156 1.394531 -2.191406 1.488281 -2.191406 C 1.578125 -2.191406 1.652344 -2.160156 1.707031 -2.101562 C 1.765625 -2.042969 1.792969 -1.964844 1.792969 -1.863281 Z "/>
</g>
<g id="glyph-0-7">
<path d="M 1.476562 -0.09375 C 1.382812 -0.0546875 1.292969 -0.0195312 1.210938 0.00390625 C 1.125 0.03125 1.023438 0.046875 0.902344 0.046875 C 0.722656 0.046875 0.597656 0 0.523438 -0.0898438 C 0.449219 -0.179688 0.414062 -0.308594 0.414062 -0.472656 L 0.414062 -1.921875 L 0.0273438 -1.921875 L 0.0273438 -2.132812 L 0.421875 -2.132812 L 0.421875 -2.796875 L 0.816406 -2.796875 L 0.816406 -2.132812 L 1.433594 -2.132812 L 1.433594 -1.921875 L 0.824219 -1.921875 L 0.824219 -0.726562 C 0.824219 -0.636719 0.824219 -0.5625 0.832031 -0.503906 C 0.839844 -0.441406 0.855469 -0.390625 0.878906 -0.34375 C 0.902344 -0.304688 0.9375 -0.269531 0.984375 -0.25 C 1.027344 -0.226562 1.089844 -0.21875 1.167969 -0.21875 C 1.207031 -0.21875 1.257812 -0.21875 1.328125 -0.226562 C 1.398438 -0.234375 1.449219 -0.242188 1.476562 -0.25 Z "/>
</g>
<g id="glyph-0-8">
<path d="M 2.351562 -0.195312 L 1.910156 -0.195312 L 1.910156 0.792969 L 1.496094 0.792969 L 1.496094 -0.195312 L 0.105469 -0.195312 L 0.105469 -0.53125 L 1.628906 -2.382812 L 1.910156 -2.382812 L 1.910156 -0.480469 L 2.351562 -0.480469 L 2.351562 -0.195312 M 1.496094 -0.480469 L 1.496094 -1.902344 L 0.320312 -0.480469 Z "/>
</g>
</g>
</defs>
<g fill="rgb(100%, 100%, 100%)" fill-opacity="1">
<use xlink:href="#glyph-0-0" x="30" y="24.074219"/>
<use xlink:href="#glyph-0-1" x="33" y="24.074219"/>
<use xlink:href="#glyph-0-2" x="34" y="24.074219"/>
<use xlink:href="#glyph-0-3" x="36" y="24.074219"/>
<use xlink:href="#glyph-0-1" x="39" y="24.074219"/>
<use xlink:href="#glyph-0-4" x="40" y="24.074219"/>
<use xlink:href="#glyph-0-5" x="43" y="24.074219"/>
<use xlink:href="#glyph-0-6" x="45" y="24.074219"/>
<use xlink:href="#glyph-0-7" x="47" y="24.074219"/>
<use xlink:href="#glyph-0-1" x="49" y="24.074219"/>
<use xlink:href="#glyph-0-8" x="50" y="24.074219"/>
</g>
</svg>
