<?xml version="1.0" encoding="UTF-8"?>
<svg xmlns="http://www.w3.org/2000/svg" xmlns:xlink="http://www.w3.org/1999/xlink" width="854" height="480" viewBox="0 0 854 480">
<defs>
<g>
<g id="glyph-0-0">
<path d="M 9.484375 -4.5625 C 9.484375 -3.777344 9.339844 -3.097656 9.042969 -2.519531 C 8.746094 -1.941406 8.363281 -1.46875 7.890625 -1.101562 C 7.414062 -0.730469 6.878906 -0.457031 6.28125 -0.273438 C 5.6875 -0.0898438 5.074219 0 4.441406 0 L 0.613281 0 L 0.613281 -0.460938 C 0.738281 -0.460938 0.902344 -0.472656 1.101562 -0.496094 C 1.304688 -0.523438 1.4375 -0.550781 1.503906 -0.578125 C 1.632812 -0.636719 1.726562 -0.71875 1.785156 -0.828125 C 1.84375 -0.941406 1.875 -1.074219 1.875 -1.230469 L 1.875 -7.898438 C 1.875 -8.042969 1.851562 -8.175781 1.800781 -8.292969 C 1.75 -8.410156 1.652344 -8.503906 1.503906 -8.574219 C 1.371094 -8.640625 1.222656 -8.6875 1.066406 -8.71875 C 0.910156 -8.746094 0.777344 -8.765625 0.664062 -8.777344 L 0.664062 -9.238281 L 4.699219 -9.238281 C 5.257812 -9.238281 5.804688 -9.152344 6.339844 -8.980469 C 6.878906 -8.808594 7.347656 -8.578125 7.746094 -8.289062 C 8.289062 -7.902344 8.714844 -7.394531 9.023438 -6.769531 C 9.332031 -6.144531 9.484375 -5.410156 9.484375 -4.5625 M 7.890625 -4.566406 C 7.890625 -5.1875 7.808594 -5.746094 7.644531 -6.25 C 7.476562 -6.75 7.238281 -7.1875 6.921875 -7.558594 C 6.621094 -7.914062 6.253906 -8.195312 5.816406 -8.398438 C 5.378906 -8.601562 4.894531 -8.703125 4.363281 -8.703125 C 4.183594 -8.703125 3.984375 -8.703125 3.757812 -8.695312 C 3.535156 -8.6875 3.371094 -8.683594 3.261719 -8.679688 L 3.261719 -1.582031 C 3.261719 -1.1875 3.375 -0.914062 3.605469 -0.761719 C 3.835938 -0.609375 4.191406 -0.535156 4.667969 -0.535156 C 5.21875 -0.535156 5.699219 -0.632812 6.113281 -0.828125 C 6.527344 -1.023438 6.859375 -1.292969 7.117188 -1.640625 C 7.386719 -2.003906 7.582031 -2.425781 7.703125 -2.90625 C 7.828125 -3.382812 7.890625 -3.9375 7.890625 -4.566406 Z "/>
</g>
<g id="glyph-0-1">
<path d="M 8.40625 -2.722656 L 8.230469 0 L 0.558594 0 L 0.558594 -0.460938 C 0.691406 -0.472656 0.863281 -0.488281 1.082031 -0.515625 C 1.296875 -0.546875 1.4375 -0.574219 1.503906 -0.605469 C 1.644531 -0.671875 1.738281 -0.753906 1.792969 -0.859375 C 1.847656 -0.964844 1.875 -1.097656 1.875 -1.257812 L 1.875 -7.898438 C 1.875 -8.039062 1.851562 -8.167969 1.804688 -8.277344 C 1.753906 -8.390625 1.65625 -8.480469 1.503906 -8.546875 C 1.386719 -8.605469 1.230469 -8.65625 1.03125 -8.699219 C 0.835938 -8.742188 0.675781 -8.765625 0.558594 -8.777344 L 0.558594 -9.238281 L 7.707031 -9.238281 L 7.707031 -7.011719 L 7.21875 -7.011719 C 7.132812 -7.339844 6.945312 -7.691406 6.65625 -8.0625 C 6.367188 -8.433594 6.09375 -8.636719 5.832031 -8.671875 C 5.699219 -8.6875 5.539062 -8.703125 5.351562 -8.710938 C 5.164062 -8.71875 4.953125 -8.722656 4.714844 -8.722656 L 3.261719 -8.722656 L 3.261719 -5.050781 L 4.304688 -5.050781 C 4.636719 -5.050781 4.882812 -5.082031 5.035156 -5.144531 C 5.191406 -5.210938 5.324219 -5.316406 5.441406 -5.460938 C 5.539062 -5.589844 5.621094 -5.757812 5.6875 -5.964844 C 5.753906 -6.175781 5.796875 -6.375 5.820312 -6.5625 L 6.308594 -6.5625 L 6.308594 -2.941406 L 5.820312 -2.941406 C 5.804688 -3.152344 5.757812 -3.371094 5.679688 -3.601562 C 5.605469 -3.835938 5.523438 -4.003906 5.441406 -4.109375 C 5.308594 -4.277344 5.15625 -4.386719 4.984375 -4.441406 C 4.8125 -4.492188 4.585938 -4.519531 4.304688 -4.519531 L 3.261719 -4.519531 L 3.261719 -1.75 C 3.261719 -1.472656 3.28125 -1.253906 3.320312 -1.09375 C 3.359375 -0.933594 3.433594 -0.8125 3.546875 -0.730469 C 3.660156 -0.648438 3.816406 -0.59375 4.011719 -0.570312 C 4.207031 -0.546875 4.484375 -0.535156 4.84375 -0.535156 C 4.988281 -0.535156 5.175781 -0.535156 5.410156 -0.535156 C 5.644531 -0.535156 5.84375 -0.542969 6.003906 -0.558594 C 6.167969 -0.578125 6.335938 -0.609375 6.511719 -0.652344 C 6.6875 -0.699219 6.8125 -0.761719 6.886719 -0.839844 C 7.085938 -1.046875 7.296875 -1.363281 7.515625 -1.785156 C 7.734375 -2.210938 7.875 -2.523438 7.9375 -2.722656 Z "/>
</g>
<g id="glyph-0-2">
<path d="M 9.25 0 L 5.410156 0 L 5.410156 -0.460938 C 5.75 -0.484375 6.03125 -0.527344 6.253906 -0.59375 C 6.476562 -0.65625 6.589844 -0.738281 6.589844 -0.832031 C 6.589844 -0.871094 6.585938 -0.921875 6.578125 -0.976562 C 6.566406 -1.03125 6.554688 -1.082031 6.539062 -1.125 L 5.773438 -3.195312 L 2.53125 -3.195312 C 2.40625 -2.894531 2.308594 -2.628906 2.234375 -2.402344 C 2.15625 -2.175781 2.089844 -1.96875 2.027344 -1.777344 C 1.972656 -1.589844 1.933594 -1.4375 1.910156 -1.320312 C 1.886719 -1.203125 1.878906 -1.109375 1.878906 -1.035156 C 1.878906 -0.863281 2.015625 -0.726562 2.289062 -0.632812 C 2.5625 -0.535156 2.871094 -0.480469 3.210938 -0.460938 L 3.210938 0 L -0.265625 0 L -0.265625 -0.460938 C -0.152344 -0.472656 -0.0117188 -0.496094 0.15625 -0.539062 C 0.324219 -0.578125 0.464844 -0.632812 0.574219 -0.703125 C 0.746094 -0.820312 0.882812 -0.941406 0.976562 -1.070312 C 1.070312 -1.199219 1.164062 -1.375 1.257812 -1.601562 C 1.722656 -2.761719 2.234375 -4.0625 2.792969 -5.507812 C 3.351562 -6.953125 3.851562 -8.238281 4.289062 -9.367188 L 4.8125 -9.367188 L 7.890625 -1.398438 C 7.957031 -1.230469 8.03125 -1.09375 8.113281 -0.988281 C 8.195312 -0.886719 8.308594 -0.785156 8.457031 -0.683594 C 8.558594 -0.621094 8.6875 -0.570312 8.847656 -0.53125 C 9.007812 -0.488281 9.144531 -0.464844 9.25 -0.460938 L 9.25 0 M 5.535156 -3.777344 L 4.136719 -7.359375 L 2.757812 -3.777344 Z "/>
</g>
<g id="glyph-0-3">
<path d="M 8.054688 -2.746094 L 7.859375 0 L 0.636719 0 L 0.636719 -0.460938 C 0.742188 -0.472656 0.894531 -0.484375 1.089844 -0.507812 C 1.289062 -0.53125 1.425781 -0.558594 1.503906 -0.59375 C 1.632812 -0.648438 1.726562 -0.730469 1.785156 -0.839844 C 1.84375 -0.949219 1.875 -1.085938 1.875 -1.257812 L 1.875 -7.871094 C 1.875 -8.019531 1.851562 -8.148438 1.800781 -8.261719 C 1.75 -8.375 1.652344 -8.464844 1.503906 -8.535156 C 1.402344 -8.585938 1.265625 -8.636719 1.085938 -8.6875 C 0.902344 -8.738281 0.753906 -8.765625 0.636719 -8.777344 L 0.636719 -9.238281 L 4.539062 -9.238281 L 4.539062 -8.777344 C 4.417969 -8.773438 4.257812 -8.75 4.066406 -8.710938 C 3.871094 -8.671875 3.734375 -8.636719 3.644531 -8.605469 C 3.5 -8.554688 3.398438 -8.464844 3.34375 -8.339844 C 3.289062 -8.214844 3.261719 -8.078125 3.261719 -7.9375 L 3.261719 -1.730469 C 3.261719 -1.445312 3.277344 -1.222656 3.304688 -1.0625 C 3.332031 -0.90625 3.398438 -0.785156 3.503906 -0.695312 C 3.601562 -0.617188 3.75 -0.566406 3.949219 -0.542969 C 4.144531 -0.519531 4.421875 -0.507812 4.777344 -0.507812 C 4.9375 -0.507812 5.105469 -0.511719 5.28125 -0.519531 C 5.453125 -0.53125 5.617188 -0.546875 5.773438 -0.574219 C 5.925781 -0.597656 6.066406 -0.632812 6.195312 -0.679688 C 6.324219 -0.726562 6.417969 -0.785156 6.476562 -0.851562 C 6.65625 -1.050781 6.863281 -1.355469 7.097656 -1.761719 C 7.335938 -2.167969 7.5 -2.496094 7.589844 -2.746094 Z "/>
</g>
<g id="glyph-0-4">
<path d="M 8.097656 -8.144531 C 8.507812 -7.71875 8.824219 -7.207031 9.054688 -6.605469 C 9.285156 -6.003906 9.402344 -5.339844 9.402344 -4.609375 C 9.402344 -3.875 9.285156 -3.210938 9.050781 -2.609375 C 8.816406 -2.011719 8.488281 -1.5 8.074219 -1.082031 C 7.667969 -0.664062 7.199219 -0.34375 6.667969 -0.117188 C 6.132812 0.109375 5.5625 0.222656 4.960938 0.222656 C 4.320312 0.222656 3.726562 0.101562 3.179688 -0.140625 C 2.636719 -0.378906 2.167969 -0.714844 1.777344 -1.144531 C 1.386719 -1.566406 1.078125 -2.078125 0.855469 -2.679688 C 0.632812 -3.28125 0.519531 -3.921875 0.519531 -4.609375 C 0.519531 -5.359375 0.636719 -6.03125 0.871094 -6.617188 C 1.105469 -7.207031 1.429688 -7.714844 1.84375 -8.144531 C 2.25 -8.570312 2.722656 -8.894531 3.265625 -9.121094 C 3.804688 -9.347656 4.371094 -9.460938 4.960938 -9.460938 C 5.574219 -9.460938 6.148438 -9.34375 6.691406 -9.113281 C 7.234375 -8.882812 7.703125 -8.5625 8.097656 -8.144531 M 7.128906 -1.59375 C 7.371094 -1.988281 7.546875 -2.4375 7.660156 -2.9375 C 7.769531 -3.433594 7.824219 -3.992188 7.824219 -4.609375 C 7.824219 -5.242188 7.761719 -5.824219 7.640625 -6.355469 C 7.515625 -6.882812 7.335938 -7.335938 7.097656 -7.707031 C 6.859375 -8.078125 6.558594 -8.363281 6.199219 -8.570312 C 5.835938 -8.777344 5.425781 -8.878906 4.960938 -8.878906 C 4.441406 -8.878906 3.996094 -8.761719 3.632812 -8.523438 C 3.269531 -8.285156 2.972656 -7.964844 2.742188 -7.566406 C 2.523438 -7.183594 2.363281 -6.734375 2.257812 -6.222656 C 2.148438 -5.710938 2.097656 -5.171875 2.097656 -4.609375 C 2.097656 -3.984375 2.152344 -3.421875 2.265625 -2.917969 C 2.378906 -2.414062 2.554688 -1.964844 2.800781 -1.574219 C 3.035156 -1.195312 3.328125 -0.894531 3.683594 -0.679688 C 4.039062 -0.464844 4.464844 -0.359375 4.960938 -0.359375 C 5.425781 -0.359375 5.84375 -0.464844 6.21875 -0.683594 C 6.589844 -0.902344 6.894531 -1.203125 7.128906 -1.59375 Z "/>
</g>
<g id="glyph-0-5">
<path d="M 4.703125 0.222656 C 4.152344 0.222656 3.625 0.113281 3.121094 -0.105469 C 2.613281 -0.320312 2.167969 -0.632812 1.777344 -1.042969 C 1.390625 -1.449219 1.082031 -1.949219 0.851562 -2.539062 C 0.621094 -3.125 0.507812 -3.789062 0.507812 -4.527344 C 0.507812 -5.265625 0.621094 -5.9375 0.847656 -6.539062 C 1.070312 -7.140625 1.382812 -7.65625 1.78125 -8.089844 C 2.175781 -8.523438 2.644531 -8.855469 3.179688 -9.089844 C 3.71875 -9.324219 4.292969 -9.441406 4.90625 -9.441406 C 5.359375 -9.441406 5.773438 -9.382812 6.140625 -9.269531 C 6.507812 -9.15625 6.859375 -9 7.195312 -8.796875 L 7.460938 -9.238281 L 7.980469 -9.238281 L 8.039062 -5.945312 L 7.507812 -5.945312 C 7.4375 -6.265625 7.332031 -6.613281 7.195312 -6.988281 C 7.054688 -7.363281 6.894531 -7.683594 6.707031 -7.941406 C 6.5 -8.238281 6.25 -8.46875 5.964844 -8.636719 C 5.679688 -8.804688 5.351562 -8.886719 4.984375 -8.886719 C 4.5625 -8.886719 4.171875 -8.792969 3.808594 -8.605469 C 3.449219 -8.417969 3.132812 -8.144531 2.871094 -7.777344 C 2.617188 -7.425781 2.421875 -6.980469 2.277344 -6.4375 C 2.136719 -5.894531 2.0625 -5.289062 2.0625 -4.617188 C 2.0625 -4.027344 2.136719 -3.488281 2.289062 -2.992188 C 2.4375 -2.5 2.652344 -2.066406 2.929688 -1.695312 C 3.207031 -1.324219 3.535156 -1.035156 3.914062 -0.828125 C 4.292969 -0.617188 4.71875 -0.515625 5.183594 -0.515625 C 5.535156 -0.515625 5.859375 -0.570312 6.152344 -0.679688 C 6.449219 -0.789062 6.703125 -0.9375 6.921875 -1.121094 C 7.136719 -1.3125 7.328125 -1.527344 7.492188 -1.769531 C 7.660156 -2.015625 7.792969 -2.277344 7.898438 -2.566406 L 8.386719 -2.332031 C 8.011719 -1.414062 7.519531 -0.761719 6.902344 -0.367188 C 6.285156 0.0234375 5.554688 0.222656 4.703125 0.222656 Z "/>
</g>
<g id="glyph-0-6">
<path d="M 9.601562 0 L 7.011719 0 C 6.511719 -0.773438 5.957031 -1.539062 5.347656 -2.300781 C 4.738281 -3.0625 4.097656 -3.800781 3.429688 -4.519531 L 3.261719 -4.519531 L 3.261719 -1.300781 C 3.261719 -1.160156 3.289062 -1.03125 3.34375 -0.917969 C 3.398438 -0.804688 3.496094 -0.714844 3.640625 -0.644531 C 3.707031 -0.613281 3.835938 -0.578125 4.027344 -0.535156 C 4.214844 -0.492188 4.371094 -0.464844 4.5 -0.460938 L 4.5 0 L 0.664062 0 L 0.664062 -0.460938 C 0.765625 -0.472656 0.910156 -0.484375 1.101562 -0.5 C 1.292969 -0.519531 1.425781 -0.542969 1.503906 -0.578125 C 1.632812 -0.636719 1.726562 -0.71875 1.785156 -0.828125 C 1.84375 -0.941406 1.875 -1.074219 1.875 -1.230469 L 1.875 -7.898438 C 1.875 -8.042969 1.851562 -8.171875 1.800781 -8.28125 C 1.75 -8.390625 1.652344 -8.480469 1.503906 -8.546875 C 1.386719 -8.605469 1.246094 -8.65625 1.085938 -8.699219 C 0.925781 -8.742188 0.785156 -8.765625 0.664062 -8.777344 L 0.664062 -9.238281 L 4.5 -9.238281 L 4.5 -8.777344 C 4.378906 -8.773438 4.226562 -8.753906 4.042969 -8.71875 C 3.859375 -8.683594 3.726562 -8.648438 3.640625 -8.621094 C 3.492188 -8.566406 3.390625 -8.480469 3.339844 -8.359375 C 3.289062 -8.238281 3.261719 -8.105469 3.261719 -7.960938 L 3.261719 -4.773438 L 3.390625 -4.773438 C 3.78125 -5.101562 4.167969 -5.445312 4.542969 -5.804688 C 4.921875 -6.160156 5.265625 -6.519531 5.574219 -6.875 C 5.914062 -7.269531 6.167969 -7.585938 6.324219 -7.820312 C 6.484375 -8.058594 6.5625 -8.269531 6.5625 -8.449219 C 6.5625 -8.515625 6.523438 -8.570312 6.441406 -8.609375 C 6.363281 -8.652344 6.269531 -8.683594 6.164062 -8.710938 C 6.042969 -8.738281 5.933594 -8.753906 5.839844 -8.757812 C 5.746094 -8.765625 5.667969 -8.773438 5.605469 -8.777344 L 5.605469 -9.238281 L 9.070312 -9.238281 L 9.070312 -8.777344 C 9.054688 -8.777344 9.027344 -8.773438 8.984375 -8.769531 C 8.941406 -8.765625 8.890625 -8.761719 8.835938 -8.757812 C 8.773438 -8.753906 8.714844 -8.742188 8.652344 -8.730469 C 8.59375 -8.71875 8.515625 -8.703125 8.417969 -8.683594 C 8.265625 -8.648438 8.109375 -8.59375 7.945312 -8.519531 C 7.785156 -8.441406 7.652344 -8.347656 7.546875 -8.234375 C 7.101562 -7.726562 6.632812 -7.203125 6.148438 -6.660156 C 5.664062 -6.117188 5.183594 -5.621094 4.707031 -5.175781 C 5.367188 -4.429688 5.914062 -3.785156 6.34375 -3.246094 C 6.777344 -2.710938 7.238281 -2.136719 7.722656 -1.523438 C 7.910156 -1.289062 8.09375 -1.101562 8.28125 -0.960938 C 8.464844 -0.820312 8.625 -0.714844 8.761719 -0.644531 C 8.871094 -0.589844 9.011719 -0.542969 9.179688 -0.515625 C 9.351562 -0.484375 9.492188 -0.464844 9.601562 -0.460938 Z "/>
</g>
<g id="glyph-0-7">
</g>
<g id="glyph-0-8">
<path d="M 8.152344 -6.730469 L 7.703125 -6.730469 C 7.664062 -6.886719 7.59375 -7.074219 7.488281 -7.289062 C 7.386719 -7.503906 7.273438 -7.707031 7.148438 -7.898438 C 7.015625 -8.097656 6.875 -8.273438 6.71875 -8.421875 C 6.566406 -8.570312 6.417969 -8.65625 6.273438 -8.679688 C 6.136719 -8.695312 5.96875 -8.707031 5.765625 -8.71875 C 5.558594 -8.726562 5.371094 -8.730469 5.195312 -8.730469 L 4.816406 -8.730469 L 4.816406 -1.339844 C 4.816406 -1.199219 4.847656 -1.066406 4.910156 -0.945312 C 4.96875 -0.828125 5.074219 -0.734375 5.226562 -0.671875 C 5.304688 -0.640625 5.46875 -0.597656 5.71875 -0.546875 C 5.96875 -0.496094 6.164062 -0.464844 6.300781 -0.460938 L 6.300781 0 L 1.941406 0 L 1.941406 -0.460938 C 2.0625 -0.472656 2.246094 -0.488281 2.496094 -0.515625 C 2.746094 -0.539062 2.917969 -0.574219 3.015625 -0.613281 C 3.15625 -0.667969 3.261719 -0.75 3.328125 -0.855469 C 3.398438 -0.960938 3.429688 -1.105469 3.429688 -1.28125 L 3.429688 -8.730469 L 3.054688 -8.730469 C 2.917969 -8.730469 2.75 -8.726562 2.550781 -8.71875 C 2.351562 -8.714844 2.160156 -8.699219 1.980469 -8.679688 C 1.835938 -8.660156 1.6875 -8.574219 1.53125 -8.421875 C 1.378906 -8.265625 1.238281 -8.09375 1.105469 -7.898438 C 0.976562 -7.703125 0.863281 -7.496094 0.761719 -7.273438 C 0.660156 -7.054688 0.59375 -6.875 0.554688 -6.730469 L 0.0976562 -6.730469 L 0.0976562 -9.238281 L 8.152344 -9.238281 Z "/>
</g>
</g>
</defs>
<g fill="rgb(98.823529%, 38.431373%, 33.333333%)" fill-opacity="1">
<use xlink:href="#glyph-0-0" x="30" y="32.226562"/>
<use xlink:href="#glyph-0-1" x="40" y="32.226562"/>
<use xlink:href="#glyph-0-2" x="49" y="32.226562"/>
<use xlink:href="#glyph-0-0" x="58" y="32.226562"/>
<use xlink:href="#glyph-0-3" x="68" y="32.226562"/>
<use xlink:href="#glyph-0-4" x="76" y="32.226562"/>
<use xlink:href="#glyph-0-5" x="86" y="32.226562"/>
<use xlink:href="#glyph-0-6" x="95" y="32.226562"/>
<use xlink:href="#glyph-0-7" x="104" y="32.226562"/>
<use xlink:href="#glyph-0-0" x="107" y="32.226562"/>
<use xlink:href="#glyph-0-1" x="117" y="32.226562"/>
<use xlink:href="#glyph-0-8" x="126" y="32.226562"/>
<use xlink:href="#glyph-0-1" x="134" y="32.226562"/>
<use xlink:href="#glyph-0-5" x="143" y="32.226562"/>
<use xlink:href="#glyph-0-8" x="152" y="32.226562"/>
<use xlink:href="#glyph-0-1" x="160" y="32.226562"/>
<use xlink:href="#glyph-0-0" x="169" y="32.226562"/>
</g>
</svg>
