<?xml version="1.0" encoding="UTF-8"?>
<svg xmlns="http://www.w3.org/2000/svg" xmlns:xlink="http://www.w3.org/1999/xlink" width="854" height="480" viewBox="0 0 854 480">
<defs>
<g>
<g id="glyph-0-0">
<path d="M 2.714844 -2.242188 L 2.566406 -2.242188 C 2.554688 -2.296875 2.53125 -2.359375 2.496094 -2.429688 C 2.460938 -2.5 2.425781 -2.570312 2.382812 -2.632812 C 2.339844 -2.699219 2.292969 -2.757812 2.238281 -2.808594 C 2.1875 -2.855469 2.136719 -2.886719 2.089844 -2.890625 C 2.046875 -2.898438 1.988281 -2.902344 1.921875 -2.90625 C 1.851562 -2.910156 1.789062 -2.910156 1.730469 -2.910156 L 1.605469 -2.910156 L 1.605469 -0.445312 C 1.605469 -0.398438 1.617188 -0.355469 1.636719 -0.316406 C 1.65625 -0.277344 1.691406 -0.246094 1.742188 -0.222656 C 1.769531 -0.214844 1.824219 -0.199219 1.90625 -0.183594 C 1.988281 -0.164062 2.054688 -0.15625 2.101562 -0.152344 L 2.101562 0 L 0.648438 0 L 0.648438 -0.152344 C 0.6875 -0.15625 0.75 -0.164062 0.832031 -0.171875 C 0.914062 -0.179688 0.972656 -0.191406 1.003906 -0.203125 C 1.050781 -0.222656 1.085938 -0.25 1.109375 -0.285156 C 1.132812 -0.320312 1.144531 -0.367188 1.144531 -0.425781 L 1.144531 -2.910156 L 1.019531 -2.910156 C 0.972656 -2.910156 0.917969 -2.910156 0.851562 -2.90625 C 0.785156 -2.90625 0.71875 -2.898438 0.660156 -2.890625 C 0.613281 -2.886719 0.5625 -2.859375 0.511719 -2.808594 C 0.460938 -2.753906 0.414062 -2.695312 0.367188 -2.632812 C 0.324219 -2.566406 0.289062 -2.496094 0.253906 -2.425781 C 0.21875 -2.351562 0.199219 -2.292969 0.183594 -2.242188 L 0.03125 -2.242188 L 0.03125 -3.078125 L 2.714844 -3.078125 Z "/>
</g>
<g id="glyph-0-1">
<path d="M 2.242188 -1.089844 C 2.242188 -0.941406 2.21875 -0.792969 2.171875 -0.648438 C 2.125 -0.503906 2.054688 -0.378906 1.96875 -0.277344 C 1.867188 -0.160156 1.753906 -0.0742188 1.621094 -0.0195312 C 1.488281 0.0351562 1.339844 0.0664062 1.175781 0.0664062 C 1.042969 0.0664062 0.910156 0.0390625 0.789062 -0.0117188 C 0.664062 -0.0625 0.554688 -0.136719 0.460938 -0.238281 C 0.367188 -0.332031 0.292969 -0.453125 0.234375 -0.589844 C 0.179688 -0.730469 0.152344 -0.886719 0.152344 -1.0625 C 0.152344 -1.394531 0.25 -1.667969 0.445312 -1.882812 C 0.640625 -2.09375 0.894531 -2.199219 1.210938 -2.199219 C 1.507812 -2.199219 1.757812 -2.097656 1.953125 -1.898438 C 2.144531 -1.695312 2.242188 -1.425781 2.242188 -1.089844 M 1.792969 -1.085938 C 1.792969 -1.195312 1.785156 -1.308594 1.761719 -1.429688 C 1.738281 -1.550781 1.707031 -1.652344 1.664062 -1.738281 C 1.617188 -1.828125 1.558594 -1.898438 1.480469 -1.953125 C 1.40625 -2.007812 1.3125 -2.035156 1.207031 -2.035156 C 1.09375 -2.035156 1 -2.007812 0.917969 -1.953125 C 0.839844 -1.898438 0.777344 -1.824219 0.726562 -1.726562 C 0.679688 -1.640625 0.648438 -1.539062 0.628906 -1.425781 C 0.609375 -1.3125 0.601562 -1.203125 0.601562 -1.097656 C 0.601562 -0.960938 0.613281 -0.832031 0.636719 -0.710938 C 0.65625 -0.59375 0.691406 -0.488281 0.742188 -0.398438 C 0.792969 -0.304688 0.855469 -0.230469 0.929688 -0.179688 C 1.003906 -0.125 1.09375 -0.101562 1.207031 -0.101562 C 1.386719 -0.101562 1.53125 -0.1875 1.636719 -0.363281 C 1.742188 -0.539062 1.792969 -0.777344 1.792969 -1.085938 Z "/>
</g>
<g id="glyph-0-2">
<path d="M 0.992188 -1.851562 C 0.992188 -1.769531 0.960938 -1.703125 0.902344 -1.644531 C 0.84375 -1.585938 0.773438 -1.558594 0.695312 -1.558594 C 0.613281 -1.558594 0.542969 -1.585938 0.484375 -1.644531 C 0.425781 -1.703125 0.398438 -1.769531 0.398438 -1.851562 C 0.398438 -1.933594 0.425781 -2.003906 0.484375 -2.0625 C 0.542969 -2.117188 0.613281 -2.148438 0.695312 -2.148438 C 0.777344 -2.148438 0.847656 -2.117188 0.90625 -2.0625 C 0.960938 -2.003906 0.992188 -1.933594 0.992188 -1.851562 M 0.992188 -0.25 C 0.992188 -0.167969 0.960938 -0.0976562 0.902344 -0.0429688 C 0.84375 0.015625 0.773438 0.0429688 0.695312 0.0429688 C 0.613281 0.0429688 0.542969 0.015625 0.484375 -0.0429688 C 0.425781 -0.0976562 0.398438 -0.167969 0.398438 -0.25 C 0.398438 -0.332031 0.425781 -0.398438 0.484375 -0.457031 C 0.542969 -0.515625 0.613281 -0.546875 0.695312 -0.546875 C 0.773438 -0.546875 0.84375 -0.515625 0.902344 -0.457031 C 0.960938 -0.398438 0.992188 -0.332031 0.992188 -0.25 Z "/>
</g>
<g id="glyph-0-3">
</g>
<g id="glyph-0-4">
<path d="M 2.394531 -1.433594 C 2.484375 -1.375 2.558594 -1.292969 2.617188 -1.195312 C 2.679688 -1.097656 2.707031 -0.976562 2.707031 -0.835938 C 2.707031 -0.695312 2.675781 -0.570312 2.613281 -0.464844 C 2.550781 -0.359375 2.472656 -0.273438 2.371094 -0.203125 C 2.273438 -0.136719 2.164062 -0.0859375 2.042969 -0.0507812 C 1.921875 -0.015625 1.792969 0 1.664062 0 L 0.207031 0 L 0.207031 -0.152344 C 0.242188 -0.15625 0.292969 -0.164062 0.359375 -0.171875 C 0.425781 -0.183594 0.472656 -0.191406 0.5 -0.207031 C 0.546875 -0.226562 0.578125 -0.253906 0.597656 -0.289062 C 0.617188 -0.320312 0.625 -0.367188 0.625 -0.417969 L 0.625 -2.632812 C 0.625 -2.679688 0.617188 -2.726562 0.601562 -2.761719 C 0.582031 -2.800781 0.550781 -2.832031 0.5 -2.851562 C 0.457031 -2.875 0.410156 -2.890625 0.355469 -2.902344 C 0.300781 -2.914062 0.257812 -2.921875 0.222656 -2.925781 L 0.222656 -3.078125 L 1.644531 -3.078125 C 1.753906 -3.078125 1.859375 -3.066406 1.957031 -3.046875 C 2.058594 -3.023438 2.15625 -2.988281 2.246094 -2.929688 C 2.332031 -2.882812 2.402344 -2.8125 2.457031 -2.726562 C 2.511719 -2.636719 2.539062 -2.53125 2.539062 -2.410156 C 2.539062 -2.300781 2.519531 -2.203125 2.480469 -2.117188 C 2.441406 -2.035156 2.386719 -1.960938 2.316406 -1.902344 C 2.25 -1.84375 2.171875 -1.792969 2.085938 -1.753906 C 2 -1.714844 1.90625 -1.683594 1.808594 -1.664062 L 1.808594 -1.644531 C 1.894531 -1.632812 1.996094 -1.609375 2.105469 -1.578125 C 2.214844 -1.542969 2.308594 -1.496094 2.394531 -1.433594 M 1.871094 -1.898438 C 1.925781 -1.960938 1.960938 -2.03125 1.980469 -2.101562 C 2.003906 -2.175781 2.015625 -2.265625 2.015625 -2.367188 C 2.015625 -2.535156 1.96875 -2.667969 1.875 -2.765625 C 1.78125 -2.863281 1.636719 -2.910156 1.4375 -2.910156 C 1.390625 -2.910156 1.332031 -2.910156 1.261719 -2.90625 C 1.195312 -2.90625 1.132812 -2.902344 1.085938 -2.902344 L 1.085938 -1.714844 L 1.363281 -1.714844 C 1.480469 -1.714844 1.582031 -1.730469 1.667969 -1.761719 C 1.75 -1.792969 1.820312 -1.839844 1.871094 -1.898438 M 2.171875 -0.914062 C 2.171875 -1.097656 2.109375 -1.246094 1.988281 -1.363281 C 1.867188 -1.480469 1.691406 -1.539062 1.464844 -1.539062 C 1.371094 -1.539062 1.292969 -1.539062 1.230469 -1.539062 C 1.167969 -1.535156 1.117188 -1.535156 1.085938 -1.53125 L 1.085938 -0.445312 C 1.085938 -0.355469 1.125 -0.289062 1.199219 -0.242188 C 1.273438 -0.195312 1.375 -0.171875 1.507812 -0.171875 C 1.722656 -0.171875 1.886719 -0.234375 2 -0.359375 C 2.113281 -0.484375 2.171875 -0.671875 2.171875 -0.914062 Z "/>
</g>
</g>
</defs>
<g fill="rgb(0%, 0%, 0%)" fill-opacity="1">
<use xlink:href="#glyph-0-0" x="30" y="24.074219"/>
<use xlink:href="#glyph-0-1" x="33" y="24.074219"/>
<use xlink:href="#glyph-0-2" x="35" y="24.074219"/>
<use xlink:href="#glyph-0-3" x="36" y="24.074219"/>
<use xlink:href="#glyph-0-4" x="37" y="24.074219"/>
</g>
</svg>
