<?xml version="1.0" encoding="UTF-8"?>
<svg xmlns="http://www.w3.org/2000/svg" xmlns:xlink="http://www.w3.org/1999/xlink" width="854" height="480" viewBox="0 0 854 480">
<defs>
<g>
<g id="glyph-0-0">
<path d="M 5.5 -3.65625 C 5.457031 -3.65625 5.402344 -3.644531 5.34375 -3.625 C 5.285156 -3.605469 5.230469 -3.582031 5.179688 -3.550781 C 5.117188 -3.511719 5.066406 -3.464844 5.027344 -3.414062 C 4.988281 -3.363281 4.953125 -3.289062 4.925781 -3.199219 C 4.796875 -2.78125 4.644531 -2.292969 4.476562 -1.734375 C 4.304688 -1.175781 4.121094 -0.582031 3.925781 0.0507812 L 3.675781 0.0507812 L 2.703125 -2.917969 L 1.695312 0.0507812 L 1.453125 0.0507812 C 1.273438 -0.585938 1.089844 -1.242188 0.898438 -1.921875 C 0.707031 -2.601562 0.578125 -3.058594 0.511719 -3.289062 C 0.496094 -3.347656 0.472656 -3.398438 0.441406 -3.441406 C 0.410156 -3.484375 0.367188 -3.523438 0.3125 -3.558594 C 0.265625 -3.589844 0.214844 -3.613281 0.152344 -3.628906 C 0.09375 -3.644531 0.0390625 -3.652344 -0.0117188 -3.65625 L -0.0117188 -3.847656 L 1.558594 -3.847656 L 1.558594 -3.65625 C 1.421875 -3.648438 1.304688 -3.636719 1.207031 -3.617188 C 1.109375 -3.597656 1.0625 -3.5625 1.0625 -3.515625 C 1.0625 -3.496094 1.066406 -3.472656 1.070312 -3.445312 C 1.074219 -3.414062 1.078125 -3.390625 1.082031 -3.371094 C 1.125 -3.214844 1.199219 -2.949219 1.304688 -2.582031 C 1.410156 -2.214844 1.566406 -1.664062 1.773438 -0.933594 L 2.734375 -3.796875 L 3 -3.796875 L 3.96875 -0.871094 C 4.101562 -1.320312 4.214844 -1.714844 4.308594 -2.050781 C 4.402344 -2.386719 4.480469 -2.675781 4.542969 -2.914062 C 4.585938 -3.082031 4.613281 -3.195312 4.625 -3.257812 C 4.632812 -3.320312 4.640625 -3.375 4.640625 -3.417969 C 4.640625 -3.480469 4.597656 -3.53125 4.515625 -3.574219 C 4.429688 -3.613281 4.292969 -3.640625 4.105469 -3.65625 L 4.105469 -3.847656 L 5.5 -3.847656 Z "/>
</g>
<g id="glyph-0-1">
<path d="M 3.855469 0 L 2.253906 0 L 2.253906 -0.191406 C 2.394531 -0.203125 2.511719 -0.21875 2.605469 -0.246094 C 2.699219 -0.273438 2.746094 -0.308594 2.746094 -0.347656 C 2.746094 -0.363281 2.742188 -0.382812 2.742188 -0.40625 C 2.738281 -0.429688 2.730469 -0.453125 2.722656 -0.46875 L 2.40625 -1.332031 L 1.054688 -1.332031 C 1.003906 -1.207031 0.960938 -1.09375 0.929688 -1 C 0.898438 -0.90625 0.871094 -0.820312 0.84375 -0.742188 C 0.820312 -0.664062 0.804688 -0.597656 0.796875 -0.550781 C 0.785156 -0.5 0.78125 -0.460938 0.78125 -0.429688 C 0.78125 -0.359375 0.839844 -0.304688 0.953125 -0.261719 C 1.066406 -0.222656 1.195312 -0.199219 1.339844 -0.191406 L 1.339844 0 L -0.109375 0 L -0.109375 -0.191406 C -0.0625 -0.195312 -0.00390625 -0.207031 0.0664062 -0.222656 C 0.136719 -0.242188 0.195312 -0.265625 0.238281 -0.292969 C 0.3125 -0.34375 0.367188 -0.394531 0.40625 -0.445312 C 0.445312 -0.5 0.484375 -0.574219 0.523438 -0.667969 C 0.71875 -1.148438 0.929688 -1.691406 1.164062 -2.296875 C 1.398438 -2.898438 1.605469 -3.433594 1.789062 -3.902344 L 2.003906 -3.902344 L 3.289062 -0.582031 C 3.316406 -0.511719 3.347656 -0.457031 3.378906 -0.414062 C 3.414062 -0.367188 3.460938 -0.328125 3.523438 -0.285156 C 3.566406 -0.257812 3.621094 -0.238281 3.6875 -0.222656 C 3.753906 -0.203125 3.808594 -0.195312 3.855469 -0.191406 L 3.855469 0 M 2.304688 -1.574219 L 1.722656 -3.066406 L 1.148438 -1.574219 Z "/>
</g>
<g id="glyph-0-2">
<path d="M 4.214844 -3.65625 C 4.164062 -3.65625 4.085938 -3.640625 3.984375 -3.613281 C 3.878906 -3.585938 3.800781 -3.558594 3.757812 -3.53125 C 3.691406 -3.484375 3.648438 -3.398438 3.625 -3.269531 C 3.601562 -3.140625 3.59375 -2.976562 3.59375 -2.78125 L 3.59375 0.0390625 L 3.355469 0.0390625 L 1.023438 -3.113281 L 1.023438 -1.125 C 1.023438 -0.902344 1.035156 -0.734375 1.066406 -0.613281 C 1.09375 -0.492188 1.136719 -0.410156 1.195312 -0.359375 C 1.234375 -0.316406 1.320312 -0.28125 1.453125 -0.246094 C 1.582031 -0.210938 1.667969 -0.195312 1.710938 -0.191406 L 1.710938 0 L 0.128906 0 L 0.128906 -0.191406 C 0.179688 -0.195312 0.261719 -0.214844 0.378906 -0.246094 C 0.492188 -0.277344 0.566406 -0.304688 0.59375 -0.332031 C 0.65625 -0.382812 0.699219 -0.457031 0.722656 -0.5625 C 0.746094 -0.667969 0.757812 -0.84375 0.757812 -1.097656 L 0.757812 -2.992188 C 0.757812 -3.074219 0.746094 -3.160156 0.714844 -3.242188 C 0.6875 -3.324219 0.648438 -3.390625 0.597656 -3.433594 C 0.535156 -3.496094 0.445312 -3.546875 0.335938 -3.585938 C 0.222656 -3.628906 0.132812 -3.652344 0.0664062 -3.65625 L 0.0664062 -3.847656 L 1.164062 -3.847656 L 3.328125 -0.914062 L 3.328125 -2.746094 C 3.328125 -2.96875 3.3125 -3.140625 3.285156 -3.261719 C 3.257812 -3.382812 3.214844 -3.460938 3.160156 -3.503906 C 3.109375 -3.535156 3.027344 -3.570312 2.914062 -3.601562 C 2.796875 -3.636719 2.710938 -3.652344 2.652344 -3.65625 L 2.652344 -3.847656 L 4.214844 -3.847656 Z "/>
</g>
<g id="glyph-0-3">
</g>
<g id="glyph-0-4">
<path d="M 1.902344 0.890625 C 1.40625 0.828125 1.019531 0.578125 0.738281 0.144531 C 0.457031 -0.292969 0.316406 -0.878906 0.316406 -1.617188 C 0.316406 -2.367188 0.457031 -2.960938 0.738281 -3.402344 C 1.019531 -3.839844 1.40625 -4.089844 1.902344 -4.15625 L 1.902344 -3.929688 C 1.554688 -3.867188 1.289062 -3.644531 1.109375 -3.265625 C 0.929688 -2.886719 0.839844 -2.335938 0.839844 -1.613281 C 0.839844 -0.921875 0.925781 -0.386719 1.105469 -0.00390625 C 1.28125 0.378906 1.546875 0.601562 1.902344 0.667969 Z "/>
</g>
<g id="glyph-0-5">
<path d="M 1.949219 0 L 0.214844 0 L 0.214844 -0.191406 C 0.261719 -0.195312 0.332031 -0.203125 0.425781 -0.207031 C 0.519531 -0.214844 0.582031 -0.226562 0.621094 -0.242188 C 0.679688 -0.265625 0.722656 -0.296875 0.75 -0.335938 C 0.777344 -0.378906 0.792969 -0.433594 0.792969 -0.507812 L 0.792969 -3.296875 C 0.792969 -3.359375 0.78125 -3.414062 0.761719 -3.453125 C 0.742188 -3.496094 0.695312 -3.53125 0.621094 -3.5625 C 0.566406 -3.582031 0.5 -3.605469 0.417969 -3.625 C 0.335938 -3.640625 0.265625 -3.652344 0.214844 -3.65625 L 0.214844 -3.847656 L 1.949219 -3.847656 L 1.949219 -3.65625 C 1.890625 -3.65625 1.824219 -3.648438 1.746094 -3.636719 C 1.667969 -3.625 1.601562 -3.609375 1.542969 -3.59375 C 1.476562 -3.570312 1.429688 -3.535156 1.40625 -3.484375 C 1.382812 -3.4375 1.371094 -3.382812 1.371094 -3.324219 L 1.371094 -0.539062 C 1.371094 -0.476562 1.382812 -0.425781 1.410156 -0.378906 C 1.4375 -0.332031 1.480469 -0.296875 1.542969 -0.269531 C 1.582031 -0.253906 1.644531 -0.238281 1.730469 -0.222656 C 1.816406 -0.203125 1.886719 -0.195312 1.949219 -0.191406 Z "/>
</g>
<g id="glyph-0-6">
<path d="M 3.148438 0 L 1.84375 0 L 1.84375 -0.179688 C 1.882812 -0.183594 1.929688 -0.1875 1.980469 -0.191406 C 2.027344 -0.195312 2.070312 -0.199219 2.101562 -0.210938 C 2.152344 -0.226562 2.191406 -0.257812 2.214844 -0.296875 C 2.238281 -0.335938 2.25 -0.390625 2.25 -0.457031 L 2.25 -1.832031 C 2.25 -2.019531 2.207031 -2.167969 2.117188 -2.269531 C 2.027344 -2.375 1.917969 -2.425781 1.789062 -2.425781 C 1.691406 -2.425781 1.605469 -2.410156 1.527344 -2.378906 C 1.445312 -2.351562 1.375 -2.3125 1.3125 -2.269531 C 1.253906 -2.230469 1.207031 -2.183594 1.171875 -2.136719 C 1.136719 -2.089844 1.109375 -2.050781 1.09375 -2.019531 L 1.09375 -0.484375 C 1.09375 -0.421875 1.105469 -0.371094 1.132812 -0.332031 C 1.15625 -0.292969 1.195312 -0.261719 1.246094 -0.238281 C 1.28125 -0.21875 1.324219 -0.207031 1.367188 -0.199219 C 1.414062 -0.1875 1.457031 -0.183594 1.503906 -0.179688 L 1.503906 0 L 0.195312 0 L 0.195312 -0.179688 C 0.238281 -0.183594 0.28125 -0.1875 0.324219 -0.191406 C 0.367188 -0.195312 0.40625 -0.199219 0.441406 -0.210938 C 0.488281 -0.226562 0.527344 -0.257812 0.550781 -0.296875 C 0.578125 -0.335938 0.589844 -0.390625 0.589844 -0.457031 L 0.589844 -2.105469 C 0.589844 -2.167969 0.574219 -2.222656 0.550781 -2.273438 C 0.523438 -2.328125 0.488281 -2.367188 0.441406 -2.402344 C 0.40625 -2.421875 0.363281 -2.4375 0.316406 -2.449219 C 0.269531 -2.457031 0.21875 -2.464844 0.164062 -2.46875 L 0.164062 -2.648438 L 1.054688 -2.707031 L 1.09375 -2.667969 L 1.09375 -2.292969 L 1.105469 -2.292969 C 1.148438 -2.335938 1.203125 -2.386719 1.269531 -2.449219 C 1.335938 -2.507812 1.394531 -2.558594 1.453125 -2.597656 C 1.519531 -2.640625 1.601562 -2.675781 1.691406 -2.703125 C 1.785156 -2.734375 1.890625 -2.75 2.003906 -2.75 C 2.261719 -2.75 2.453125 -2.667969 2.574219 -2.507812 C 2.699219 -2.347656 2.761719 -2.136719 2.761719 -1.871094 L 2.761719 -0.476562 C 2.761719 -0.414062 2.773438 -0.363281 2.792969 -0.324219 C 2.816406 -0.285156 2.851562 -0.253906 2.90625 -0.234375 C 2.949219 -0.214844 2.988281 -0.203125 3.019531 -0.195312 C 3.050781 -0.1875 3.09375 -0.183594 3.148438 -0.179688 Z "/>
</g>
<g id="glyph-0-7">
<path d="M 1.847656 -0.117188 C 1.730469 -0.0664062 1.617188 -0.0273438 1.515625 0.0078125 C 1.410156 0.0390625 1.28125 0.0585938 1.128906 0.0585938 C 0.902344 0.0585938 0.746094 0 0.65625 -0.113281 C 0.5625 -0.226562 0.519531 -0.386719 0.519531 -0.589844 L 0.519531 -2.402344 L 0.0351562 -2.402344 L 0.0351562 -2.664062 L 0.527344 -2.664062 L 0.527344 -3.496094 L 1.023438 -3.496094 L 1.023438 -2.664062 L 1.789062 -2.664062 L 1.789062 -2.402344 L 1.027344 -2.402344 L 1.027344 -0.910156 C 1.027344 -0.796875 1.03125 -0.703125 1.039062 -0.628906 C 1.046875 -0.554688 1.066406 -0.488281 1.097656 -0.429688 C 1.128906 -0.378906 1.171875 -0.339844 1.230469 -0.3125 C 1.285156 -0.285156 1.363281 -0.269531 1.460938 -0.269531 C 1.507812 -0.269531 1.574219 -0.273438 1.660156 -0.285156 C 1.75 -0.292969 1.8125 -0.300781 1.847656 -0.316406 Z "/>
</g>
<g id="glyph-0-8">
<path d="M 2.570312 -0.628906 C 2.460938 -0.414062 2.308594 -0.246094 2.121094 -0.121094 C 1.933594 0.0078125 1.71875 0.0703125 1.472656 0.0703125 C 1.257812 0.0703125 1.070312 0.03125 0.90625 -0.0429688 C 0.746094 -0.121094 0.613281 -0.222656 0.507812 -0.351562 C 0.402344 -0.484375 0.324219 -0.636719 0.273438 -0.808594 C 0.222656 -0.980469 0.195312 -1.164062 0.195312 -1.359375 C 0.195312 -1.53125 0.222656 -1.703125 0.277344 -1.871094 C 0.332031 -2.039062 0.414062 -2.1875 0.519531 -2.320312 C 0.625 -2.449219 0.75 -2.554688 0.90625 -2.632812 C 1.058594 -2.710938 1.230469 -2.75 1.417969 -2.75 C 1.613281 -2.75 1.78125 -2.71875 1.921875 -2.660156 C 2.058594 -2.597656 2.171875 -2.511719 2.261719 -2.40625 C 2.34375 -2.304688 2.40625 -2.1875 2.445312 -2.046875 C 2.488281 -1.910156 2.507812 -1.761719 2.507812 -1.601562 L 2.507812 -1.421875 L 0.734375 -1.421875 C 0.734375 -1.246094 0.75 -1.085938 0.785156 -0.941406 C 0.820312 -0.800781 0.871094 -0.671875 0.945312 -0.566406 C 1.015625 -0.460938 1.105469 -0.378906 1.222656 -0.316406 C 1.335938 -0.253906 1.46875 -0.226562 1.628906 -0.226562 C 1.789062 -0.226562 1.925781 -0.261719 2.042969 -0.339844 C 2.160156 -0.414062 2.273438 -0.550781 2.382812 -0.746094 L 2.570312 -0.628906 M 1.972656 -1.648438 C 1.972656 -1.75 1.964844 -1.859375 1.945312 -1.972656 C 1.929688 -2.089844 1.902344 -2.1875 1.863281 -2.261719 C 1.820312 -2.347656 1.765625 -2.414062 1.691406 -2.464844 C 1.621094 -2.519531 1.527344 -2.542969 1.414062 -2.542969 C 1.222656 -2.542969 1.066406 -2.464844 0.941406 -2.308594 C 0.8125 -2.148438 0.746094 -1.929688 0.734375 -1.648438 Z "/>
</g>
<g id="glyph-0-9">
<path d="M 2.242188 -2.332031 C 2.242188 -2.238281 2.222656 -2.15625 2.175781 -2.085938 C 2.128906 -2.011719 2.0625 -1.976562 1.96875 -1.976562 C 1.867188 -1.976562 1.789062 -2.003906 1.734375 -2.054688 C 1.679688 -2.109375 1.65625 -2.167969 1.65625 -2.230469 C 1.65625 -2.269531 1.65625 -2.304688 1.664062 -2.339844 C 1.671875 -2.371094 1.675781 -2.402344 1.683594 -2.4375 C 1.597656 -2.4375 1.496094 -2.402344 1.382812 -2.332031 C 1.269531 -2.265625 1.171875 -2.167969 1.09375 -2.039062 L 1.09375 -0.484375 C 1.09375 -0.417969 1.105469 -0.367188 1.128906 -0.328125 C 1.15625 -0.289062 1.191406 -0.257812 1.246094 -0.238281 C 1.289062 -0.21875 1.347656 -0.207031 1.421875 -0.199219 C 1.492188 -0.1875 1.554688 -0.183594 1.605469 -0.179688 L 1.605469 0 L 0.195312 0 L 0.195312 -0.179688 C 0.238281 -0.183594 0.28125 -0.1875 0.324219 -0.191406 C 0.367188 -0.195312 0.40625 -0.199219 0.441406 -0.210938 C 0.488281 -0.226562 0.527344 -0.257812 0.550781 -0.296875 C 0.578125 -0.335938 0.589844 -0.390625 0.589844 -0.457031 L 0.589844 -2.105469 C 0.589844 -2.160156 0.574219 -2.214844 0.550781 -2.269531 C 0.523438 -2.324219 0.488281 -2.367188 0.441406 -2.402344 C 0.40625 -2.421875 0.363281 -2.4375 0.316406 -2.449219 C 0.269531 -2.457031 0.21875 -2.464844 0.164062 -2.46875 L 0.164062 -2.648438 L 1.054688 -2.707031 L 1.09375 -2.667969 L 1.09375 -2.292969 L 1.105469 -2.292969 C 1.21875 -2.4375 1.34375 -2.550781 1.480469 -2.625 C 1.617188 -2.703125 1.746094 -2.738281 1.859375 -2.738281 C 1.972656 -2.738281 2.066406 -2.703125 2.136719 -2.628906 C 2.207031 -2.554688 2.242188 -2.457031 2.242188 -2.332031 Z "/>
</g>
<g id="glyph-0-10">
<path d="M 1.765625 -1.617188 C 1.765625 -0.878906 1.625 -0.292969 1.34375 0.144531 C 1.0625 0.578125 0.675781 0.828125 0.183594 0.890625 L 0.183594 0.667969 C 0.535156 0.601562 0.800781 0.378906 0.980469 -0.00390625 C 1.15625 -0.386719 1.246094 -0.921875 1.246094 -1.613281 C 1.246094 -2.335938 1.15625 -2.886719 0.972656 -3.265625 C 0.792969 -3.644531 0.527344 -3.867188 0.183594 -3.929688 L 0.183594 -4.15625 C 0.675781 -4.089844 1.0625 -3.839844 1.34375 -3.402344 C 1.625 -2.960938 1.765625 -2.367188 1.765625 -1.617188 Z "/>
</g>
</g>
</defs>
<g fill="rgb(100%, 100%, 100%)" fill-opacity="1">
<use xlink:href="#glyph-0-0" x="30" y="25.094727"/>
<use xlink:href="#glyph-0-1" x="35" y="25.094727"/>
<use xlink:href="#glyph-0-2" x="39" y="25.094727"/>
<use xlink:href="#glyph-0-3" x="43" y="25.094727"/>
<use xlink:href="#glyph-0-4" x="44" y="25.094727"/>
<use xlink:href="#glyph-0-5" x="46" y="25.094727"/>
<use xlink:href="#glyph-0-6" x="48" y="25.094727"/>
<use xlink:href="#glyph-0-7" x="51" y="25.094727"/>
<use xlink:href="#glyph-0-8" x="53" y="25.094727"/>
<use xlink:href="#glyph-0-9" x="56" y="25.094727"/>
<use xlink:href="#glyph-0-6" x="58" y="25.094727"/>
<use xlink:href="#glyph-0-8" x="61" y="25.094727"/>
<use xlink:href="#glyph-0-7" x="64" y="25.094727"/>
<use xlink:href="#glyph-0-10" x="66" y="25.094727"/>
</g>
</svg>
