<?xml version="1.0" encoding="UTF-8"?>
<svg xmlns="http://www.w3.org/2000/svg" xmlns:xlink="http://www.w3.org/1999/xlink" width="854" height="480" viewBox="0 0 854 480">
<defs>
<g>
<g id="glyph-0-0">
<path d="M 4.902344 -1.585938 L 4.800781 0 L 0.328125 0 L 0.328125 -0.269531 C 0.402344 -0.273438 0.503906 -0.285156 0.628906 -0.300781 C 0.757812 -0.320312 0.839844 -0.335938 0.878906 -0.351562 C 0.957031 -0.390625 1.015625 -0.441406 1.046875 -0.5 C 1.078125 -0.5625 1.09375 -0.640625 1.09375 -0.734375 L 1.09375 -4.605469 C 1.09375 -4.691406 1.078125 -4.765625 1.050781 -4.828125 C 1.023438 -4.894531 0.964844 -4.945312 0.878906 -4.984375 C 0.808594 -5.019531 0.71875 -5.046875 0.601562 -5.074219 C 0.488281 -5.097656 0.394531 -5.113281 0.328125 -5.117188 L 0.328125 -5.390625 L 4.496094 -5.390625 L 4.496094 -4.089844 L 4.210938 -4.089844 C 4.160156 -4.28125 4.050781 -4.488281 3.882812 -4.703125 C 3.714844 -4.917969 3.554688 -5.039062 3.402344 -5.058594 C 3.324219 -5.070312 3.230469 -5.074219 3.121094 -5.082031 C 3.011719 -5.085938 2.886719 -5.089844 2.75 -5.089844 L 1.902344 -5.089844 L 1.902344 -2.945312 L 2.511719 -2.945312 C 2.707031 -2.945312 2.847656 -2.964844 2.9375 -3 C 3.027344 -3.039062 3.105469 -3.101562 3.175781 -3.1875 C 3.230469 -3.257812 3.277344 -3.359375 3.316406 -3.480469 C 3.355469 -3.601562 3.382812 -3.71875 3.394531 -3.828125 L 3.679688 -3.828125 L 3.679688 -1.714844 L 3.394531 -1.714844 C 3.386719 -1.839844 3.359375 -1.964844 3.3125 -2.101562 C 3.269531 -2.238281 3.222656 -2.335938 3.175781 -2.394531 C 3.097656 -2.496094 3.007812 -2.558594 2.90625 -2.589844 C 2.808594 -2.621094 2.675781 -2.636719 2.511719 -2.636719 L 1.902344 -2.636719 L 1.902344 -1.019531 C 1.902344 -0.859375 1.914062 -0.730469 1.9375 -0.636719 C 1.960938 -0.542969 2.003906 -0.472656 2.070312 -0.425781 C 2.136719 -0.378906 2.226562 -0.347656 2.339844 -0.332031 C 2.453125 -0.316406 2.613281 -0.3125 2.824219 -0.3125 C 2.910156 -0.3125 3.019531 -0.3125 3.15625 -0.3125 C 3.292969 -0.3125 3.40625 -0.316406 3.5 -0.328125 C 3.597656 -0.335938 3.695312 -0.355469 3.800781 -0.382812 C 3.902344 -0.410156 3.976562 -0.445312 4.019531 -0.488281 C 4.132812 -0.613281 4.257812 -0.796875 4.382812 -1.042969 C 4.511719 -1.289062 4.59375 -1.472656 4.628906 -1.585938 Z "/>
</g>
<g id="glyph-0-1">
<path d="M 2.585938 -0.164062 C 2.421875 -0.09375 2.265625 -0.0390625 2.117188 0.0078125 C 1.972656 0.0546875 1.792969 0.078125 1.578125 0.078125 C 1.265625 0.078125 1.046875 0 0.917969 -0.15625 C 0.789062 -0.316406 0.726562 -0.539062 0.726562 -0.828125 L 0.726562 -3.363281 L 0.0507812 -3.363281 L 0.0507812 -3.730469 L 0.742188 -3.730469 L 0.742188 -4.894531 L 1.433594 -4.894531 L 1.433594 -3.730469 L 2.507812 -3.730469 L 2.507812 -3.363281 L 1.4375 -3.363281 L 1.4375 -1.273438 C 1.4375 -1.113281 1.445312 -0.984375 1.457031 -0.878906 C 1.46875 -0.773438 1.496094 -0.683594 1.539062 -0.605469 C 1.578125 -0.53125 1.640625 -0.476562 1.71875 -0.4375 C 1.800781 -0.398438 1.910156 -0.378906 2.046875 -0.378906 C 2.109375 -0.378906 2.203125 -0.386719 2.324219 -0.398438 C 2.449219 -0.410156 2.535156 -0.421875 2.585938 -0.441406 Z "/>
</g>
<g id="glyph-0-2">
<path d="M 4.347656 0 L 2.507812 0 L 2.507812 -0.25 C 2.566406 -0.253906 2.628906 -0.261719 2.699219 -0.265625 C 2.769531 -0.269531 2.828125 -0.28125 2.875 -0.296875 C 2.945312 -0.320312 3 -0.359375 3.03125 -0.414062 C 3.066406 -0.472656 3.082031 -0.546875 3.082031 -0.636719 L 3.082031 -2.5625 C 3.082031 -2.828125 3.019531 -3.035156 2.894531 -3.179688 C 2.769531 -3.324219 2.617188 -3.394531 2.4375 -3.394531 C 2.304688 -3.394531 2.183594 -3.375 2.070312 -3.332031 C 1.957031 -3.289062 1.855469 -3.238281 1.765625 -3.179688 C 1.679688 -3.117188 1.613281 -3.050781 1.570312 -2.988281 C 1.523438 -2.925781 1.488281 -2.871094 1.460938 -2.828125 L 1.460938 -0.675781 C 1.460938 -0.589844 1.480469 -0.519531 1.511719 -0.464844 C 1.546875 -0.40625 1.601562 -0.363281 1.671875 -0.335938 C 1.726562 -0.308594 1.785156 -0.289062 1.84375 -0.277344 C 1.902344 -0.265625 1.96875 -0.253906 2.039062 -0.25 L 2.039062 0 L 0.203125 0 L 0.203125 -0.25 C 0.261719 -0.253906 0.324219 -0.261719 0.386719 -0.269531 C 0.449219 -0.273438 0.5 -0.285156 0.542969 -0.296875 C 0.613281 -0.320312 0.667969 -0.359375 0.703125 -0.414062 C 0.738281 -0.472656 0.753906 -0.546875 0.753906 -0.636719 L 0.753906 -5 C 0.753906 -5.085938 0.734375 -5.171875 0.695312 -5.257812 C 0.65625 -5.34375 0.605469 -5.410156 0.542969 -5.453125 C 0.496094 -5.484375 0.417969 -5.507812 0.300781 -5.523438 C 0.1875 -5.539062 0.09375 -5.546875 0.0234375 -5.550781 L 0.0234375 -5.796875 L 1.410156 -5.878906 L 1.460938 -5.820312 L 1.460938 -3.207031 L 1.476562 -3.207031 C 1.5625 -3.292969 1.636719 -3.367188 1.707031 -3.429688 C 1.773438 -3.496094 1.863281 -3.5625 1.976562 -3.632812 C 2.070312 -3.695312 2.183594 -3.746094 2.316406 -3.785156 C 2.445312 -3.828125 2.59375 -3.847656 2.753906 -3.847656 C 3.089844 -3.847656 3.347656 -3.742188 3.527344 -3.53125 C 3.707031 -3.320312 3.796875 -3.015625 3.796875 -2.617188 L 3.796875 -0.667969 C 3.796875 -0.578125 3.8125 -0.507812 3.84375 -0.453125 C 3.878906 -0.398438 3.929688 -0.355469 4.003906 -0.328125 C 4.0625 -0.304688 4.117188 -0.285156 4.164062 -0.273438 C 4.210938 -0.265625 4.273438 -0.253906 4.347656 -0.25 Z "/>
</g>
<g id="glyph-0-3">
<path d="M 3.601562 -0.882812 C 3.441406 -0.582031 3.234375 -0.34375 2.96875 -0.167969 C 2.707031 0.0117188 2.402344 0.0976562 2.0625 0.0976562 C 1.761719 0.0976562 1.496094 0.046875 1.269531 -0.0625 C 1.042969 -0.167969 0.855469 -0.3125 0.710938 -0.492188 C 0.5625 -0.675781 0.453125 -0.886719 0.382812 -1.132812 C 0.308594 -1.375 0.273438 -1.632812 0.273438 -1.902344 C 0.273438 -2.144531 0.3125 -2.382812 0.390625 -2.617188 C 0.464844 -2.851562 0.578125 -3.0625 0.730469 -3.25 C 0.875 -3.429688 1.050781 -3.574219 1.265625 -3.683594 C 1.480469 -3.796875 1.71875 -3.851562 1.984375 -3.851562 C 2.257812 -3.851562 2.492188 -3.808594 2.6875 -3.722656 C 2.882812 -3.636719 3.042969 -3.519531 3.164062 -3.367188 C 3.28125 -3.226562 3.367188 -3.058594 3.421875 -2.867188 C 3.480469 -2.675781 3.507812 -2.464844 3.507812 -2.242188 L 3.507812 -1.988281 L 1.027344 -1.988281 C 1.027344 -1.742188 1.050781 -1.519531 1.097656 -1.320312 C 1.144531 -1.121094 1.21875 -0.941406 1.320312 -0.789062 C 1.421875 -0.644531 1.550781 -0.527344 1.707031 -0.441406 C 1.867188 -0.359375 2.058594 -0.316406 2.277344 -0.316406 C 2.503906 -0.316406 2.699219 -0.367188 2.863281 -0.472656 C 3.023438 -0.578125 3.183594 -0.769531 3.335938 -1.042969 L 3.601562 -0.882812 M 2.761719 -2.308594 C 2.761719 -2.449219 2.75 -2.601562 2.726562 -2.761719 C 2.699219 -2.925781 2.660156 -3.058594 2.609375 -3.167969 C 2.550781 -3.285156 2.472656 -3.378906 2.371094 -3.453125 C 2.269531 -3.527344 2.136719 -3.5625 1.976562 -3.5625 C 1.710938 -3.5625 1.492188 -3.453125 1.316406 -3.230469 C 1.140625 -3.011719 1.042969 -2.703125 1.027344 -2.308594 Z "/>
</g>
<g id="glyph-0-4">
<path d="M 3.140625 -3.261719 C 3.140625 -3.132812 3.109375 -3.019531 3.046875 -2.917969 C 2.980469 -2.820312 2.886719 -2.769531 2.753906 -2.769531 C 2.613281 -2.769531 2.503906 -2.804688 2.429688 -2.878906 C 2.355469 -2.953125 2.316406 -3.03125 2.316406 -3.121094 C 2.316406 -3.175781 2.320312 -3.226562 2.328125 -3.273438 C 2.339844 -3.320312 2.347656 -3.363281 2.355469 -3.410156 C 2.234375 -3.410156 2.097656 -3.363281 1.9375 -3.265625 C 1.777344 -3.167969 1.640625 -3.03125 1.53125 -2.855469 L 1.53125 -0.675781 C 1.53125 -0.585938 1.546875 -0.515625 1.582031 -0.460938 C 1.617188 -0.402344 1.667969 -0.363281 1.742188 -0.335938 C 1.804688 -0.308594 1.886719 -0.289062 1.988281 -0.277344 C 2.089844 -0.265625 2.175781 -0.253906 2.25 -0.25 L 2.25 0 L 0.273438 0 L 0.273438 -0.25 C 0.332031 -0.253906 0.390625 -0.261719 0.453125 -0.265625 C 0.515625 -0.269531 0.570312 -0.28125 0.613281 -0.296875 C 0.6875 -0.320312 0.738281 -0.359375 0.773438 -0.414062 C 0.808594 -0.472656 0.824219 -0.546875 0.824219 -0.636719 L 0.824219 -2.949219 C 0.824219 -3.027344 0.804688 -3.101562 0.769531 -3.179688 C 0.730469 -3.253906 0.679688 -3.316406 0.613281 -3.359375 C 0.566406 -3.390625 0.511719 -3.414062 0.445312 -3.425781 C 0.378906 -3.441406 0.308594 -3.449219 0.230469 -3.457031 L 0.230469 -3.707031 L 1.476562 -3.789062 L 1.53125 -3.738281 L 1.53125 -3.207031 L 1.550781 -3.207031 C 1.707031 -3.414062 1.882812 -3.570312 2.074219 -3.675781 C 2.265625 -3.78125 2.441406 -3.835938 2.601562 -3.835938 C 2.761719 -3.835938 2.890625 -3.785156 2.992188 -3.679688 C 3.089844 -3.574219 3.140625 -3.4375 3.140625 -3.261719 Z "/>
</g>
<g id="glyph-0-5">
<path d="M 4.410156 0 L 2.578125 0 L 2.578125 -0.25 C 2.636719 -0.253906 2.699219 -0.261719 2.769531 -0.265625 C 2.839844 -0.269531 2.898438 -0.28125 2.941406 -0.296875 C 3.015625 -0.320312 3.066406 -0.359375 3.101562 -0.414062 C 3.136719 -0.472656 3.152344 -0.546875 3.152344 -0.636719 L 3.152344 -2.5625 C 3.152344 -2.828125 3.089844 -3.035156 2.964844 -3.179688 C 2.839844 -3.324219 2.683594 -3.394531 2.503906 -3.394531 C 2.371094 -3.394531 2.246094 -3.375 2.136719 -3.332031 C 2.023438 -3.289062 1.925781 -3.238281 1.839844 -3.179688 C 1.753906 -3.121094 1.6875 -3.058594 1.640625 -2.992188 C 1.589844 -2.921875 1.554688 -2.871094 1.53125 -2.828125 L 1.53125 -0.675781 C 1.53125 -0.589844 1.546875 -0.519531 1.582031 -0.464844 C 1.617188 -0.40625 1.671875 -0.363281 1.742188 -0.335938 C 1.796875 -0.308594 1.855469 -0.289062 1.914062 -0.277344 C 1.976562 -0.265625 2.042969 -0.253906 2.109375 -0.25 L 2.109375 0 L 0.273438 0 L 0.273438 -0.25 C 0.332031 -0.253906 0.390625 -0.261719 0.453125 -0.265625 C 0.515625 -0.269531 0.570312 -0.28125 0.613281 -0.296875 C 0.6875 -0.320312 0.738281 -0.359375 0.773438 -0.414062 C 0.808594 -0.472656 0.824219 -0.546875 0.824219 -0.636719 L 0.824219 -2.949219 C 0.824219 -3.035156 0.804688 -3.113281 0.769531 -3.183594 C 0.730469 -3.257812 0.679688 -3.316406 0.613281 -3.359375 C 0.566406 -3.390625 0.511719 -3.414062 0.445312 -3.425781 C 0.378906 -3.441406 0.308594 -3.449219 0.230469 -3.457031 L 0.230469 -3.707031 L 1.476562 -3.789062 L 1.53125 -3.738281 L 1.53125 -3.207031 L 1.550781 -3.207031 C 1.609375 -3.269531 1.6875 -3.34375 1.777344 -3.425781 C 1.867188 -3.511719 1.953125 -3.582031 2.035156 -3.632812 C 2.128906 -3.695312 2.242188 -3.746094 2.371094 -3.785156 C 2.5 -3.828125 2.644531 -3.847656 2.804688 -3.847656 C 3.164062 -3.847656 3.433594 -3.734375 3.605469 -3.511719 C 3.777344 -3.285156 3.867188 -2.988281 3.867188 -2.617188 L 3.867188 -0.667969 C 3.867188 -0.578125 3.882812 -0.507812 3.910156 -0.453125 C 3.941406 -0.398438 3.992188 -0.355469 4.066406 -0.328125 C 4.128906 -0.300781 4.179688 -0.285156 4.226562 -0.273438 C 4.269531 -0.261719 4.332031 -0.253906 4.410156 -0.25 Z "/>
</g>
<g id="glyph-0-6">
</g>
<g id="glyph-0-7">
<path d="M 3.726562 -2.472656 C 3.839844 -2.34375 3.921875 -2.207031 3.976562 -2.054688 C 4.03125 -1.90625 4.058594 -1.730469 4.058594 -1.53125 C 4.058594 -1.054688 3.882812 -0.660156 3.53125 -0.351562 C 3.179688 -0.0429688 2.742188 0.109375 2.222656 0.109375 C 1.980469 0.109375 1.742188 0.0742188 1.5 0 C 1.257812 -0.078125 1.050781 -0.167969 0.878906 -0.273438 L 0.714844 0.00390625 L 0.410156 0.00390625 L 0.355469 -1.84375 L 0.664062 -1.84375 C 0.726562 -1.613281 0.800781 -1.410156 0.886719 -1.226562 C 0.972656 -1.042969 1.082031 -0.871094 1.222656 -0.710938 C 1.355469 -0.5625 1.507812 -0.441406 1.683594 -0.351562 C 1.859375 -0.265625 2.066406 -0.21875 2.296875 -0.21875 C 2.472656 -0.21875 2.625 -0.242188 2.753906 -0.289062 C 2.886719 -0.335938 2.992188 -0.398438 3.070312 -0.484375 C 3.152344 -0.566406 3.214844 -0.664062 3.253906 -0.777344 C 3.292969 -0.890625 3.3125 -1.019531 3.3125 -1.167969 C 3.3125 -1.382812 3.25 -1.582031 3.128906 -1.769531 C 3.007812 -1.957031 2.828125 -2.097656 2.585938 -2.195312 C 2.421875 -2.257812 2.234375 -2.332031 2.019531 -2.410156 C 1.808594 -2.492188 1.625 -2.566406 1.46875 -2.636719 C 1.164062 -2.773438 0.929688 -2.953125 0.761719 -3.171875 C 0.59375 -3.394531 0.507812 -3.683594 0.507812 -4.039062 C 0.507812 -4.246094 0.550781 -4.4375 0.632812 -4.613281 C 0.71875 -4.792969 0.835938 -4.949219 0.992188 -5.089844 C 1.136719 -5.21875 1.3125 -5.324219 1.511719 -5.398438 C 1.710938 -5.472656 1.921875 -5.511719 2.136719 -5.511719 C 2.386719 -5.511719 2.609375 -5.472656 2.804688 -5.394531 C 3 -5.320312 3.179688 -5.230469 3.34375 -5.128906 L 3.496094 -5.390625 L 3.800781 -5.390625 L 3.832031 -3.601562 L 3.523438 -3.601562 C 3.46875 -3.804688 3.40625 -4 3.335938 -4.1875 C 3.265625 -4.375 3.175781 -4.546875 3.066406 -4.699219 C 2.957031 -4.84375 2.824219 -4.960938 2.664062 -5.046875 C 2.507812 -5.136719 2.316406 -5.179688 2.089844 -5.179688 C 1.847656 -5.179688 1.644531 -5.101562 1.472656 -4.949219 C 1.304688 -4.792969 1.21875 -4.605469 1.21875 -4.382812 C 1.21875 -4.148438 1.273438 -3.957031 1.382812 -3.804688 C 1.492188 -3.648438 1.648438 -3.523438 1.855469 -3.425781 C 2.042969 -3.335938 2.222656 -3.261719 2.402344 -3.195312 C 2.582031 -3.132812 2.753906 -3.0625 2.921875 -2.988281 C 3.070312 -2.921875 3.21875 -2.847656 3.359375 -2.765625 C 3.5 -2.679688 3.621094 -2.582031 3.726562 -2.472656 Z "/>
</g>
<g id="glyph-0-8">
<path d="M 5.851562 -3.5 C 5.746094 -3.492188 5.632812 -3.445312 5.507812 -3.367188 C 5.386719 -3.289062 5.296875 -3.171875 5.242188 -3.015625 C 5.113281 -2.644531 4.996094 -2.289062 4.882812 -1.957031 C 4.769531 -1.625 4.644531 -1.25 4.503906 -0.835938 C 4.457031 -0.703125 4.410156 -0.5625 4.367188 -0.410156 C 4.320312 -0.257812 4.277344 -0.113281 4.238281 0.0273438 L 3.914062 0.0273438 L 2.902344 -2.734375 L 1.890625 0.0273438 L 1.578125 0.0273438 C 1.390625 -0.535156 1.203125 -1.09375 1.023438 -1.644531 C 0.84375 -2.199219 0.683594 -2.679688 0.542969 -3.089844 C 0.503906 -3.210938 0.425781 -3.304688 0.3125 -3.371094 C 0.199219 -3.441406 0.0859375 -3.480469 -0.0195312 -3.492188 L -0.0195312 -3.746094 L 1.652344 -3.746094 L 1.652344 -3.480469 C 1.566406 -3.476562 1.476562 -3.460938 1.378906 -3.4375 C 1.28125 -3.410156 1.234375 -3.371094 1.234375 -3.3125 C 1.234375 -3.300781 1.238281 -3.28125 1.246094 -3.246094 C 1.253906 -3.214844 1.265625 -3.179688 1.277344 -3.140625 C 1.359375 -2.875 1.453125 -2.578125 1.554688 -2.25 C 1.65625 -1.925781 1.789062 -1.5 1.949219 -0.976562 L 2.90625 -3.667969 L 3.273438 -3.667969 L 4.25 -1.015625 C 4.359375 -1.351562 4.464844 -1.679688 4.574219 -1.996094 C 4.683594 -2.316406 4.777344 -2.613281 4.855469 -2.890625 C 4.875 -2.957031 4.890625 -3.015625 4.910156 -3.070312 C 4.925781 -3.125 4.933594 -3.179688 4.933594 -3.230469 C 4.933594 -3.277344 4.914062 -3.316406 4.871094 -3.351562 C 4.832031 -3.386719 4.78125 -3.417969 4.722656 -3.441406 C 4.675781 -3.460938 4.617188 -3.476562 4.558594 -3.484375 C 4.5 -3.496094 4.457031 -3.5 4.429688 -3.5 L 4.429688 -3.746094 L 5.851562 -3.746094 Z "/>
</g>
<g id="glyph-0-9">
<path d="M 2.089844 0 L 0.28125 0 L 0.28125 -0.25 C 0.339844 -0.253906 0.398438 -0.261719 0.460938 -0.265625 C 0.523438 -0.269531 0.578125 -0.28125 0.621094 -0.296875 C 0.695312 -0.320312 0.746094 -0.359375 0.78125 -0.414062 C 0.816406 -0.472656 0.832031 -0.546875 0.832031 -0.636719 L 0.832031 -2.949219 C 0.832031 -3.027344 0.8125 -3.101562 0.777344 -3.167969 C 0.738281 -3.238281 0.6875 -3.292969 0.621094 -3.339844 C 0.574219 -3.367188 0.503906 -3.394531 0.414062 -3.414062 C 0.324219 -3.4375 0.238281 -3.449219 0.164062 -3.457031 L 0.164062 -3.707031 L 1.484375 -3.789062 L 1.539062 -3.738281 L 1.539062 -0.683594 C 1.539062 -0.59375 1.554688 -0.523438 1.589844 -0.464844 C 1.621094 -0.40625 1.675781 -0.363281 1.75 -0.335938 C 1.804688 -0.3125 1.859375 -0.292969 1.910156 -0.277344 C 1.964844 -0.265625 2.023438 -0.253906 2.089844 -0.25 L 2.089844 0 M 1.613281 -5.265625 C 1.613281 -5.121094 1.566406 -4.996094 1.472656 -4.890625 C 1.375 -4.78125 1.257812 -4.726562 1.121094 -4.726562 C 0.992188 -4.726562 0.878906 -4.777344 0.785156 -4.882812 C 0.6875 -4.984375 0.640625 -5.101562 0.640625 -5.234375 C 0.640625 -5.371094 0.6875 -5.492188 0.785156 -5.597656 C 0.878906 -5.703125 0.992188 -5.753906 1.121094 -5.753906 C 1.265625 -5.753906 1.382812 -5.703125 1.476562 -5.605469 C 1.566406 -5.507812 1.613281 -5.394531 1.613281 -5.265625 Z "/>
</g>
<g id="glyph-0-10">
<path d="M 2.003906 0.0976562 C 1.464844 0.0976562 1.039062 -0.0820312 0.734375 -0.441406 C 0.425781 -0.800781 0.273438 -1.28125 0.273438 -1.886719 C 0.273438 -2.152344 0.316406 -2.398438 0.398438 -2.625 C 0.480469 -2.855469 0.597656 -3.0625 0.753906 -3.25 C 0.90625 -3.429688 1.09375 -3.574219 1.316406 -3.683594 C 1.542969 -3.796875 1.789062 -3.851562 2.054688 -3.851562 C 2.421875 -3.851562 2.71875 -3.761719 2.949219 -3.585938 C 3.179688 -3.410156 3.296875 -3.171875 3.296875 -2.867188 C 3.296875 -2.742188 3.265625 -2.628906 3.207031 -2.53125 C 3.144531 -2.433594 3.042969 -2.386719 2.90625 -2.386719 C 2.753906 -2.386719 2.640625 -2.421875 2.558594 -2.5 C 2.476562 -2.574219 2.433594 -2.660156 2.433594 -2.753906 C 2.433594 -2.867188 2.449219 -2.980469 2.480469 -3.101562 C 2.511719 -3.222656 2.527344 -3.308594 2.53125 -3.367188 C 2.488281 -3.445312 2.421875 -3.496094 2.332031 -3.523438 C 2.242188 -3.550781 2.144531 -3.5625 2.039062 -3.5625 C 1.917969 -3.5625 1.804688 -3.535156 1.695312 -3.484375 C 1.585938 -3.433594 1.476562 -3.335938 1.375 -3.199219 C 1.28125 -3.070312 1.203125 -2.898438 1.148438 -2.683594 C 1.089844 -2.46875 1.058594 -2.210938 1.058594 -1.914062 C 1.058594 -1.441406 1.164062 -1.058594 1.371094 -0.761719 C 1.582031 -0.464844 1.855469 -0.316406 2.191406 -0.316406 C 2.4375 -0.316406 2.644531 -0.375 2.808594 -0.496094 C 2.976562 -0.613281 3.128906 -0.792969 3.269531 -1.03125 L 3.511719 -0.875 C 3.34375 -0.574219 3.125 -0.339844 2.851562 -0.164062 C 2.578125 0.0117188 2.296875 0.0976562 2.003906 0.0976562 Z "/>
</g>
</g>
</defs>
<g fill="rgb(34.509804%, 76.862745%, 86.666667%)" fill-opacity="1">
<use xlink:href="#glyph-0-0" x="30" y="27.131836"/>
<use xlink:href="#glyph-0-1" x="35" y="27.131836"/>
<use xlink:href="#glyph-0-2" x="38" y="27.131836"/>
<use xlink:href="#glyph-0-3" x="43" y="27.131836"/>
<use xlink:href="#glyph-0-4" x="47" y="27.131836"/>
<use xlink:href="#glyph-0-5" x="50" y="27.131836"/>
<use xlink:href="#glyph-0-3" x="55" y="27.131836"/>
<use xlink:href="#glyph-0-1" x="59" y="27.131836"/>
<use xlink:href="#glyph-0-6" x="62" y="27.131836"/>
<use xlink:href="#glyph-0-7" x="64" y="27.131836"/>
<use xlink:href="#glyph-0-8" x="68" y="27.131836"/>
<use xlink:href="#glyph-0-9" x="74" y="27.131836"/>
<use xlink:href="#glyph-0-1" x="76" y="27.131836"/>
<use xlink:href="#glyph-0-10" x="79" y="27.131836"/>
<use xlink:href="#glyph-0-2" x="83" y="27.131836"/>
</g>
</svg>
