<?xml version="1.0" encoding="UTF-8"?>
<svg xmlns="http://www.w3.org/2000/svg" xmlns:xlink="http://www.w3.org/1999/xlink" width="854" height="480" viewBox="0 0 854 480">
<defs>
<g>
<g id="glyph-0-0">
<path d="M 9.636719 0 L 7.148438 0 C 6.597656 -0.863281 6.097656 -1.609375 5.65625 -2.238281 C 5.210938 -2.867188 4.726562 -3.519531 4.207031 -4.1875 L 3.261719 -4.1875 L 3.261719 -1.257812 C 3.261719 -1.105469 3.285156 -0.972656 3.332031 -0.855469 C 3.382812 -0.742188 3.484375 -0.652344 3.640625 -0.59375 C 3.71875 -0.5625 3.855469 -0.535156 4.050781 -0.507812 C 4.246094 -0.480469 4.410156 -0.464844 4.542969 -0.460938 L 4.542969 0 L 0.636719 0 L 0.636719 -0.460938 C 0.742188 -0.472656 0.894531 -0.484375 1.089844 -0.507812 C 1.289062 -0.53125 1.425781 -0.558594 1.503906 -0.59375 C 1.632812 -0.648438 1.726562 -0.730469 1.785156 -0.839844 C 1.84375 -0.949219 1.875 -1.085938 1.875 -1.257812 L 1.875 -7.9375 C 1.875 -8.089844 1.851562 -8.222656 1.808594 -8.339844 C 1.765625 -8.457031 1.664062 -8.546875 1.503906 -8.605469 C 1.394531 -8.644531 1.253906 -8.679688 1.082031 -8.714844 C 0.90625 -8.746094 0.757812 -8.765625 0.636719 -8.777344 L 0.636719 -9.238281 L 4.902344 -9.238281 C 5.292969 -9.238281 5.660156 -9.199219 6.003906 -9.117188 C 6.34375 -9.039062 6.65625 -8.910156 6.933594 -8.730469 C 7.203125 -8.558594 7.417969 -8.328125 7.578125 -8.050781 C 7.738281 -7.769531 7.820312 -7.433594 7.820312 -7.039062 C 7.820312 -6.683594 7.765625 -6.367188 7.65625 -6.09375 C 7.546875 -5.820312 7.386719 -5.582031 7.175781 -5.382812 C 6.980469 -5.199219 6.746094 -5.035156 6.472656 -4.898438 C 6.199219 -4.761719 5.894531 -4.644531 5.566406 -4.550781 C 6.023438 -3.949219 6.402344 -3.441406 6.703125 -3.027344 C 7.003906 -2.613281 7.375 -2.113281 7.8125 -1.523438 C 8.003906 -1.261719 8.175781 -1.070312 8.328125 -0.945312 C 8.484375 -0.824219 8.636719 -0.722656 8.789062 -0.644531 C 8.902344 -0.589844 9.042969 -0.542969 9.210938 -0.515625 C 9.382812 -0.484375 9.523438 -0.464844 9.636719 -0.460938 L 9.636719 0 M 6.210938 -6.882812 C 6.210938 -7.445312 6.050781 -7.886719 5.730469 -8.214844 C 5.40625 -8.539062 4.953125 -8.703125 4.367188 -8.703125 L 3.261719 -8.703125 L 3.261719 -4.746094 L 4.113281 -4.746094 C 4.714844 -4.746094 5.210938 -4.9375 5.613281 -5.320312 C 6.011719 -5.703125 6.210938 -6.226562 6.210938 -6.882812 Z "/>
</g>
<g id="glyph-0-1">
<path d="M 7.351562 -0.117188 L 5.253906 0.0273438 L 5.15625 -0.0664062 L 5.15625 -0.878906 L 5.117188 -0.878906 C 5.011719 -0.769531 4.894531 -0.652344 4.765625 -0.53125 C 4.636719 -0.40625 4.488281 -0.296875 4.316406 -0.195312 C 4.121094 -0.078125 3.933594 0.0117188 3.753906 0.0703125 C 3.570312 0.132812 3.3125 0.164062 2.980469 0.164062 C 2.410156 0.164062 1.980469 -0.0234375 1.683594 -0.394531 C 1.386719 -0.765625 1.238281 -1.300781 1.238281 -2.007812 L 1.238281 -5.078125 C 1.238281 -5.234375 1.207031 -5.367188 1.148438 -5.472656 C 1.089844 -5.578125 1.003906 -5.671875 0.890625 -5.75 C 0.8125 -5.800781 0.710938 -5.839844 0.59375 -5.863281 C 0.476562 -5.886719 0.351562 -5.902344 0.222656 -5.910156 L 0.222656 -6.339844 L 2.363281 -6.496094 L 2.460938 -6.40625 L 2.460938 -1.945312 C 2.460938 -1.480469 2.566406 -1.132812 2.773438 -0.898438 C 2.980469 -0.664062 3.230469 -0.546875 3.523438 -0.546875 C 3.761719 -0.546875 3.972656 -0.582031 4.160156 -0.65625 C 4.347656 -0.730469 4.503906 -0.816406 4.628906 -0.917969 C 4.746094 -1.007812 4.847656 -1.105469 4.9375 -1.207031 C 5.027344 -1.308594 5.09375 -1.402344 5.144531 -1.488281 L 5.144531 -5.125 C 5.144531 -5.269531 5.113281 -5.394531 5.050781 -5.503906 C 4.992188 -5.617188 4.90625 -5.710938 4.796875 -5.789062 C 4.71875 -5.839844 4.605469 -5.871094 4.449219 -5.882812 C 4.296875 -5.894531 4.125 -5.902344 3.933594 -5.910156 L 3.933594 -6.339844 L 6.269531 -6.496094 L 6.367188 -6.40625 L 6.367188 -1.3125 C 6.367188 -1.167969 6.398438 -1.042969 6.457031 -0.9375 C 6.519531 -0.832031 6.605469 -0.742188 6.710938 -0.671875 C 6.789062 -0.621094 6.882812 -0.589844 6.992188 -0.574219 C 7.101562 -0.5625 7.21875 -0.550781 7.351562 -0.546875 Z "/>
</g>
<g id="glyph-0-2">
<path d="M 7.558594 0 L 4.421875 0 L 4.421875 -0.429688 C 4.519531 -0.4375 4.628906 -0.445312 4.75 -0.457031 C 4.867188 -0.464844 4.96875 -0.480469 5.046875 -0.507812 C 5.167969 -0.546875 5.257812 -0.617188 5.316406 -0.710938 C 5.375 -0.808594 5.402344 -0.9375 5.402344 -1.09375 L 5.402344 -4.394531 C 5.402344 -4.851562 5.296875 -5.203125 5.082031 -5.449219 C 4.867188 -5.695312 4.601562 -5.820312 4.292969 -5.820312 C 4.0625 -5.820312 3.851562 -5.785156 3.660156 -5.710938 C 3.46875 -5.640625 3.300781 -5.554688 3.152344 -5.449219 C 3.007812 -5.347656 2.894531 -5.242188 2.808594 -5.125 C 2.726562 -5.011719 2.664062 -4.917969 2.625 -4.851562 L 2.625 -1.160156 C 2.625 -1.011719 2.652344 -0.890625 2.714844 -0.792969 C 2.777344 -0.699219 2.867188 -0.625 2.988281 -0.574219 C 3.078125 -0.53125 3.179688 -0.496094 3.285156 -0.476562 C 3.390625 -0.453125 3.5 -0.4375 3.613281 -0.429688 L 3.613281 0 L 0.46875 0 L 0.46875 -0.429688 C 0.570312 -0.4375 0.671875 -0.445312 0.777344 -0.457031 C 0.882812 -0.464844 0.976562 -0.480469 1.054688 -0.507812 C 1.175781 -0.546875 1.265625 -0.613281 1.324219 -0.710938 C 1.382812 -0.808594 1.414062 -0.9375 1.414062 -1.09375 L 1.414062 -5.054688 C 1.414062 -5.199219 1.382812 -5.335938 1.316406 -5.460938 C 1.253906 -5.582031 1.167969 -5.683594 1.054688 -5.761719 C 0.972656 -5.8125 0.875 -5.851562 0.761719 -5.875 C 0.648438 -5.898438 0.527344 -5.914062 0.398438 -5.925781 L 0.398438 -6.355469 L 2.53125 -6.496094 L 2.625 -6.40625 L 2.625 -5.5 L 2.65625 -5.5 C 2.761719 -5.605469 2.890625 -5.730469 3.046875 -5.875 C 3.203125 -6.019531 3.351562 -6.140625 3.488281 -6.230469 C 3.648438 -6.335938 3.839844 -6.421875 4.0625 -6.492188 C 4.285156 -6.558594 4.535156 -6.59375 4.8125 -6.59375 C 5.425781 -6.59375 5.882812 -6.402344 6.179688 -6.019531 C 6.480469 -5.632812 6.628906 -5.125 6.628906 -4.484375 L 6.628906 -1.144531 C 6.628906 -0.992188 6.652344 -0.871094 6.707031 -0.777344 C 6.757812 -0.683594 6.847656 -0.613281 6.972656 -0.558594 C 7.078125 -0.515625 7.167969 -0.484375 7.242188 -0.46875 C 7.320312 -0.453125 7.425781 -0.4375 7.558594 -0.429688 Z "/>
</g>
<g id="glyph-0-3">
</g>
<g id="glyph-0-4">
<path d="M 6.816406 0 L 0.714844 0 L 0.714844 -0.890625 C 0.832031 -1.023438 0.996094 -1.175781 1.203125 -1.34375 C 1.414062 -1.507812 1.660156 -1.691406 1.945312 -1.886719 C 2.121094 -2.003906 2.328125 -2.128906 2.570312 -2.269531 C 2.816406 -2.410156 3.089844 -2.558594 3.398438 -2.726562 C 3.742188 -2.90625 4.003906 -3.066406 4.1875 -3.207031 C 4.375 -3.34375 4.542969 -3.515625 4.695312 -3.71875 C 4.792969 -3.855469 4.875 -4.023438 4.933594 -4.222656 C 4.996094 -4.425781 5.027344 -4.714844 5.027344 -5.085938 C 5.027344 -5.628906 4.878906 -6.027344 4.589844 -6.28125 C 4.300781 -6.535156 3.925781 -6.660156 3.46875 -6.660156 C 3.1875 -6.660156 2.921875 -6.605469 2.667969 -6.492188 C 2.417969 -6.382812 2.230469 -6.230469 2.101562 -6.035156 C 2.132812 -5.894531 2.171875 -5.730469 2.21875 -5.539062 C 2.261719 -5.347656 2.285156 -5.164062 2.285156 -4.980469 C 2.285156 -4.816406 2.21875 -4.667969 2.078125 -4.539062 C 1.941406 -4.414062 1.742188 -4.347656 1.472656 -4.347656 C 1.253906 -4.347656 1.085938 -4.421875 0.96875 -4.574219 C 0.851562 -4.722656 0.792969 -4.925781 0.792969 -5.175781 C 0.792969 -5.410156 0.859375 -5.644531 0.988281 -5.882812 C 1.121094 -6.117188 1.304688 -6.335938 1.550781 -6.535156 C 1.789062 -6.730469 2.082031 -6.890625 2.433594 -7.011719 C 2.785156 -7.132812 3.167969 -7.195312 3.574219 -7.195312 C 4.464844 -7.195312 5.171875 -6.996094 5.691406 -6.597656 C 6.214844 -6.203125 6.476562 -5.671875 6.476562 -5.007812 C 6.476562 -4.691406 6.429688 -4.402344 6.335938 -4.144531 C 6.246094 -3.882812 6.09375 -3.652344 5.886719 -3.453125 C 5.65625 -3.234375 5.386719 -3.042969 5.078125 -2.886719 C 4.769531 -2.726562 4.300781 -2.507812 3.664062 -2.226562 C 3.289062 -2.054688 2.9375 -1.878906 2.609375 -1.695312 C 2.285156 -1.511719 2.019531 -1.332031 1.808594 -1.160156 L 6.816406 -1.160156 Z "/>
</g>
</g>
</defs>
<g fill="rgb(36.078431%, 81.568627%, 70.196078%)" fill-opacity="1">
<use xlink:href="#glyph-0-0" x="30" y="32.226562"/>
<use xlink:href="#glyph-0-1" x="39" y="32.226562"/>
<use xlink:href="#glyph-0-2" x="47" y="32.226562"/>
<use xlink:href="#glyph-0-3" x="55" y="32.226562"/>
<use xlink:href="#glyph-0-4" x="58" y="32.226562"/>
</g>
</svg>
