<?xml version="1.0" encoding="UTF-8"?>
<svg xmlns="http://www.w3.org/2000/svg" xmlns:xlink="http://www.w3.org/1999/xlink" width="854" height="480" viewBox="0 0 854 480">
<defs>
<g>
<g id="glyph-0-0">
<path d="M 4.25 0 L 2.652344 0 L 2.652344 -0.191406 C 2.695312 -0.195312 2.757812 -0.203125 2.839844 -0.207031 C 2.925781 -0.214844 2.980469 -0.226562 3.011719 -0.242188 C 3.066406 -0.261719 3.105469 -0.296875 3.128906 -0.339844 C 3.15625 -0.386719 3.167969 -0.441406 3.167969 -0.511719 L 3.167969 -1.882812 L 1.359375 -1.882812 L 1.359375 -0.542969 C 1.359375 -0.480469 1.371094 -0.425781 1.390625 -0.382812 C 1.410156 -0.339844 1.453125 -0.300781 1.515625 -0.269531 C 1.542969 -0.253906 1.597656 -0.234375 1.679688 -0.21875 C 1.757812 -0.203125 1.820312 -0.195312 1.863281 -0.191406 L 1.863281 0 L 0.265625 0 L 0.265625 -0.191406 C 0.308594 -0.195312 0.371094 -0.203125 0.453125 -0.207031 C 0.535156 -0.214844 0.59375 -0.226562 0.625 -0.242188 C 0.679688 -0.261719 0.71875 -0.296875 0.742188 -0.339844 C 0.769531 -0.386719 0.78125 -0.441406 0.78125 -0.511719 L 0.78125 -3.289062 C 0.78125 -3.347656 0.769531 -3.402344 0.746094 -3.449219 C 0.722656 -3.496094 0.683594 -3.535156 0.625 -3.5625 C 0.574219 -3.585938 0.515625 -3.605469 0.445312 -3.625 C 0.375 -3.640625 0.316406 -3.652344 0.265625 -3.65625 L 0.265625 -3.847656 L 1.863281 -3.847656 L 1.863281 -3.65625 C 1.8125 -3.65625 1.75 -3.648438 1.679688 -3.632812 C 1.605469 -3.617188 1.550781 -3.605469 1.515625 -3.59375 C 1.453125 -3.570312 1.410156 -3.535156 1.390625 -3.484375 C 1.371094 -3.433594 1.359375 -3.378906 1.359375 -3.316406 L 1.359375 -2.125 L 3.167969 -2.125 L 3.167969 -3.289062 C 3.167969 -3.347656 3.15625 -3.402344 3.132812 -3.449219 C 3.109375 -3.496094 3.070312 -3.535156 3.011719 -3.5625 C 2.960938 -3.585938 2.902344 -3.605469 2.832031 -3.625 C 2.765625 -3.640625 2.703125 -3.652344 2.652344 -3.65625 L 2.652344 -3.847656 L 4.25 -3.847656 L 4.25 -3.65625 C 4.199219 -3.65625 4.136719 -3.648438 4.066406 -3.632812 C 3.992188 -3.617188 3.9375 -3.605469 3.902344 -3.59375 C 3.839844 -3.570312 3.796875 -3.535156 3.777344 -3.484375 C 3.757812 -3.433594 3.746094 -3.378906 3.746094 -3.316406 L 3.746094 -0.542969 C 3.746094 -0.480469 3.757812 -0.425781 3.777344 -0.382812 C 3.796875 -0.339844 3.839844 -0.300781 3.902344 -0.269531 C 3.933594 -0.253906 3.988281 -0.234375 4.066406 -0.21875 C 4.144531 -0.203125 4.207031 -0.195312 4.25 -0.191406 Z "/>
</g>
<g id="glyph-0-1">
<path d="M 4.160156 -3.65625 C 4.109375 -3.65625 4.035156 -3.644531 3.9375 -3.625 C 3.839844 -3.605469 3.757812 -3.574219 3.699219 -3.535156 C 3.636719 -3.492188 3.59375 -3.40625 3.570312 -3.277344 C 3.546875 -3.148438 3.535156 -2.988281 3.535156 -2.800781 L 3.535156 -1.125 C 3.535156 -0.914062 3.492188 -0.726562 3.402344 -0.570312 C 3.3125 -0.414062 3.195312 -0.28125 3.050781 -0.183594 C 2.910156 -0.0859375 2.757812 -0.015625 2.601562 0.0273438 C 2.441406 0.0703125 2.289062 0.09375 2.144531 0.09375 C 1.914062 0.09375 1.707031 0.0625 1.527344 0 C 1.347656 -0.0585938 1.195312 -0.140625 1.070312 -0.246094 C 0.949219 -0.347656 0.859375 -0.464844 0.796875 -0.597656 C 0.734375 -0.730469 0.707031 -0.871094 0.707031 -1.015625 L 0.707031 -3.289062 C 0.707031 -3.355469 0.695312 -3.40625 0.675781 -3.449219 C 0.652344 -3.492188 0.609375 -3.53125 0.546875 -3.566406 C 0.503906 -3.59375 0.445312 -3.613281 0.375 -3.628906 C 0.304688 -3.644531 0.246094 -3.652344 0.199219 -3.65625 L 0.199219 -3.847656 L 1.804688 -3.847656 L 1.804688 -3.65625 C 1.753906 -3.65625 1.691406 -3.648438 1.613281 -3.632812 C 1.535156 -3.617188 1.480469 -3.605469 1.441406 -3.59375 C 1.382812 -3.570312 1.339844 -3.535156 1.320312 -3.484375 C 1.300781 -3.433594 1.289062 -3.378906 1.289062 -3.316406 L 1.289062 -1.191406 C 1.289062 -1.089844 1.300781 -0.980469 1.324219 -0.867188 C 1.34375 -0.757812 1.390625 -0.652344 1.457031 -0.554688 C 1.527344 -0.453125 1.625 -0.371094 1.746094 -0.308594 C 1.867188 -0.246094 2.03125 -0.214844 2.242188 -0.214844 C 2.441406 -0.214844 2.609375 -0.246094 2.742188 -0.308594 C 2.878906 -0.371094 2.984375 -0.457031 3.0625 -0.558594 C 3.136719 -0.65625 3.1875 -0.757812 3.21875 -0.863281 C 3.25 -0.972656 3.265625 -1.078125 3.265625 -1.1875 L 3.265625 -2.765625 C 3.265625 -2.964844 3.25 -3.128906 3.222656 -3.257812 C 3.195312 -3.382812 3.152344 -3.46875 3.09375 -3.507812 C 3.03125 -3.554688 2.945312 -3.589844 2.835938 -3.613281 C 2.726562 -3.640625 2.644531 -3.652344 2.585938 -3.65625 L 2.585938 -3.847656 L 4.160156 -3.847656 Z "/>
</g>
<g id="glyph-0-2">
<path d="M 2.996094 -1.792969 C 3.105469 -1.71875 3.199219 -1.617188 3.273438 -1.496094 C 3.347656 -1.371094 3.386719 -1.222656 3.386719 -1.046875 C 3.386719 -0.867188 3.347656 -0.710938 3.269531 -0.582031 C 3.191406 -0.449219 3.089844 -0.339844 2.964844 -0.253906 C 2.84375 -0.171875 2.707031 -0.109375 2.554688 -0.0664062 C 2.402344 -0.0234375 2.242188 0 2.082031 0 L 0.257812 0 L 0.257812 -0.191406 C 0.300781 -0.195312 0.363281 -0.203125 0.449219 -0.214844 C 0.53125 -0.226562 0.589844 -0.242188 0.625 -0.257812 C 0.683594 -0.28125 0.722656 -0.316406 0.746094 -0.359375 C 0.769531 -0.402344 0.78125 -0.457031 0.78125 -0.523438 L 0.78125 -3.289062 C 0.78125 -3.351562 0.769531 -3.40625 0.75 -3.453125 C 0.730469 -3.5 0.6875 -3.539062 0.625 -3.566406 C 0.574219 -3.59375 0.511719 -3.617188 0.445312 -3.628906 C 0.378906 -3.644531 0.320312 -3.652344 0.277344 -3.65625 L 0.277344 -3.847656 L 2.054688 -3.847656 C 2.191406 -3.847656 2.324219 -3.835938 2.449219 -3.808594 C 2.574219 -3.78125 2.695312 -3.734375 2.808594 -3.664062 C 2.914062 -3.601562 3.003906 -3.515625 3.070312 -3.40625 C 3.140625 -3.300781 3.175781 -3.167969 3.175781 -3.011719 C 3.175781 -2.875 3.148438 -2.753906 3.101562 -2.648438 C 3.050781 -2.542969 2.984375 -2.453125 2.894531 -2.375 C 2.8125 -2.304688 2.714844 -2.242188 2.609375 -2.195312 C 2.5 -2.144531 2.382812 -2.105469 2.261719 -2.078125 L 2.261719 -2.054688 C 2.371094 -2.039062 2.492188 -2.011719 2.628906 -1.972656 C 2.765625 -1.929688 2.886719 -1.871094 2.996094 -1.792969 M 2.339844 -2.375 C 2.40625 -2.453125 2.453125 -2.539062 2.476562 -2.628906 C 2.503906 -2.722656 2.515625 -2.832031 2.515625 -2.957031 C 2.515625 -3.171875 2.460938 -3.335938 2.34375 -3.457031 C 2.230469 -3.578125 2.046875 -3.636719 1.796875 -3.636719 C 1.738281 -3.636719 1.667969 -3.636719 1.578125 -3.632812 C 1.492188 -3.632812 1.417969 -3.628906 1.359375 -3.628906 L 1.359375 -2.144531 L 1.703125 -2.144531 C 1.851562 -2.144531 1.976562 -2.164062 2.082031 -2.203125 C 2.1875 -2.242188 2.273438 -2.296875 2.339844 -2.375 M 2.714844 -1.144531 C 2.714844 -1.371094 2.640625 -1.558594 2.488281 -1.707031 C 2.332031 -1.851562 2.113281 -1.925781 1.832031 -1.925781 C 1.714844 -1.925781 1.617188 -1.925781 1.539062 -1.921875 C 1.457031 -1.917969 1.398438 -1.917969 1.359375 -1.914062 L 1.359375 -0.558594 C 1.359375 -0.445312 1.40625 -0.359375 1.496094 -0.300781 C 1.589844 -0.242188 1.71875 -0.214844 1.882812 -0.214844 C 2.152344 -0.214844 2.359375 -0.292969 2.5 -0.449219 C 2.644531 -0.609375 2.714844 -0.839844 2.714844 -1.144531 Z "/>
</g>
</g>
</defs>
<g fill="rgb(94.117647%, 67.45098%, 37.254902%)" fill-opacity="1">
<use xlink:href="#glyph-0-0" x="30" y="25.094727"/>
<use xlink:href="#glyph-0-1" x="35" y="25.094727"/>
<use xlink:href="#glyph-0-2" x="39" y="25.094727"/>
</g>
</svg>
